<?xml version="1.0" encoding="UTF-8" standalone="no"?>
<svg
   width="380.16299"
   height="380.70801"
   viewBox="0 0 380.16299 380.70801"
   fill="none"
   version="1.1"
   id="svg160"
   sodipodi:docname="banner-image.svg"
   inkscape:version="1.1.1 (3bf5ae0d25, 2021-09-20)"
   xmlns:inkscape="http://www.inkscape.org/namespaces/inkscape"
   xmlns:sodipodi="http://sodipodi.sourceforge.net/DTD/sodipodi-0.dtd"
   xmlns="http://www.w3.org/2000/svg"
   xmlns:svg="http://www.w3.org/2000/svg">
  <defs
     id="defs164" />
  <sodipodi:namedview
     id="namedview162"
     pagecolor="#ffffff"
     bordercolor="#666666"
     borderopacity="1.0"
     inkscape:pageshadow="2"
     inkscape:pageopacity="0.0"
     inkscape:pagecheckerboard="0"
     showgrid="false"
     fit-margin-top="0"
     fit-margin-left="0"
     fit-margin-right="0"
     fit-margin-bottom="0"
     inkscape:zoom="1.8388747"
     inkscape:cx="222.96245"
     inkscape:cy="174.83519"
     inkscape:window-width="1920"
     inkscape:window-height="1017"
     inkscape:window-x="-8"
     inkscape:window-y="-8"
     inkscape:window-maximized="1"
     inkscape:current-layer="svg160" />
  <path
     fill-rule="evenodd"
     clip-rule="evenodd"
     d="M 232.323,31.7257 H 31.6804 V 137.478 H 232.323 c 29.161,0 52.801,-23.673 52.801,-52.8762 0,-29.2027 -23.64,-52.8761 -52.801,-52.8761 z M 0,0 v 169.204 h 232.323 c 46.657,0 84.481,-37.878 84.481,-84.6022 C 316.804,37.8775 278.98,0 232.323,0 Z"
     fill="#ecf2fe"
     id="path2" />
  <path
     fill-rule="evenodd"
     clip-rule="evenodd"
     d="M 348.483,243.23 H 147.84 c -29.161,0 -52.8002,23.673 -52.8002,52.876 0,29.202 23.6392,52.876 52.8002,52.876 H 348.483 Z M 147.84,211.504 c -46.657,0 -84.4806,37.877 -84.4806,84.602 0,46.724 37.8236,84.602 84.4806,84.602 H 380.163 V 211.504 Z"
     fill="#9ebcfc"
     id="path4" />
  <mask
     id="mask0_6483_28557"
     maskUnits="userSpaceOnUse"
     x="33"
     y="0"
     width="413"
     height="360">
    <path
       d="M 70.3462,0 445.999,32.0023 348.483,359.274 H 147.841 C 118.68,359.274 33.418,315.148 33.418,285.945 33.418,256.742 41.1852,0 70.3462,0 Z"
       fill="#9ebcfc"
       id="path6" />
    <path
       d="m 161.663,303.16 c 47.861,0 86.661,-41.761 86.661,-93.276 0,-51.516 -38.8,-93.277 -86.661,-93.277 -47.861,0 -86.6606,41.761 -86.6606,93.277 0,51.515 38.7996,93.276 86.6606,93.276 z"
       fill="#9ebcfc"
       id="path8" />
  </mask>
  <g
     mask="url(#mask0_6483_28557)"
     id="g158"
     transform="translate(0,-10.292)">
    <mask
       id="mask1_6483_28557"
       maskUnits="userSpaceOnUse"
       x="144"
       y="99"
       width="170"
       height="170">
      <path
         d="m 312.115,144.908 c 2.032,19.033 5.248,53.519 -13.214,90.659 -3.135,8.14 -8.275,15.354 -14.941,20.97 -8.639,7.117 -19.951,11.22 -41.293,11.633 -32.252,0.61 -61.353,-7.791 -83.206,-16.758 3.563,-26.162 -1.769,-52.763 -15.137,-75.522 14.54,1.774 29.644,3.928 45.227,6.529 17.227,2.902 33.69,6.083 49.388,9.544 -0.456,-9.544 -0.945,-17.912 -1.423,-25.029 -2,-29.534 -1.087,-44.562 6.161,-53.584 8.835,-11.056 25.732,-16.6058 37.153,-12.851 9.051,3.444 16.902,9.457 22.592,17.302 5.824,8.184 7.606,16.563 8.693,27.107 z"
         fill="#467df9"
         id="path11" />
    </mask>
    <g
       mask="url(#mask1_6483_28557)"
       id="g26">
      <path
         d="M 4.11191,4.71366 C 28.0184,114.329 103.758,154.887 164.731,157.063 c 62.83,2.362 110.839,-33.625 121.944,-72.4529 37.262,3.0144 88.237,-14.9085 108.427,-81.70287 17.789,31.39777 25.616,67.47287 22.443,103.43177 -3.174,35.96 -17.198,70.101 -40.21,97.887 -47.324,60.048 -140.429,99.963 -242.324,85.817 C 38.885,229.886 -12.4487,126.223 4.11191,4.71366 Z"
         stroke="#ffffff"
         stroke-miterlimit="10"
         id="path14" />
      <path
         d="m 90.8711,256.417 c 95.1909,30.536 190.9039,4.419 245.1499,-44.954 56.115,-49.176 70.806,-121.6071 46.726,-179.13"
         stroke="#ffffff"
         stroke-miterlimit="10"
         id="path16" />
      <path
         d="M 54.6641,216.316 C 140.51,263.033 236.462,250.551 295.674,211.713 356.722,173.082 381.041,108.094 366.306,54.4014"
         stroke="#ffffff"
         stroke-miterlimit="10"
         id="path18" />
      <path
         d="m 27.2461,170.382 c 73.8929,62.714 167.9099,63.693 230.1649,35.269 64.113,-28.228 96.462,-85.849 89.823,-135.7653"
         stroke="#ffffff"
         stroke-miterlimit="10"
         id="path20" />
      <path
         d="M 9.33984,119.346 C 68.8886,197.85 158.799,212.149 222.325,194.03 287.676,176.107 326.644,125.756 326.904,79.5723"
         stroke="#ffffff"
         stroke-miterlimit="10"
         id="path22" />
      <path
         d="M 1.49219,63.8906 C 44.3391,158.032 128.142,185.509 191.179,177.576 256.063,169.85 300.182,126.713 306.365,84.2075"
         stroke="#ffffff"
         stroke-miterlimit="10"
         id="path24" />
    </g>
    <path
       d="m 293.198,261.162 c 12.768,3.907 39.413,12.069 38.576,17.999 -0.782,5.441 -25.113,10.044 -45.911,2.111 -17.202,-6.529 -31.187,-21.35 -28.829,-25.834 2.358,-4.483 22.276,1.469 36.164,5.724 z"
       fill="#465bf9"
       id="path28" />
    <path
       d="m 326.396,255.721 -5.086,10.033 c -4.347,8.456 -8.628,17.063 -9.867,26.476 -1.086,8.369 0.315,16.966 2.304,25.356 1.478,6.224 0.848,14.854 -5.911,18.01 -1.956,0.914 -9.498,0.642 -9.574,-2.688 0.118,1.622 -0.135,3.25 -0.742,4.759 -0.606,1.509 -1.549,2.859 -2.757,3.946 -6.433,5.703 -14.561,0 -19.886,-5.005 -2.314,2.709 -5.618,3.068 -9.291,1.773 -5.596,-1.969 -9.41,-7.127 -10.866,-12.351 -1.456,-5.223 -0.946,-10.588 -0.424,-15.822 -1.315,1.24 -3.901,0.696 -5.249,-0.697 -1.193,-1.419 -1.848,-3.215 -1.847,-5.071 -0.739,-10.414 5.097,-19.827 11.54,-28.043 5.944,-7.618 12.736,-14.832 21.658,-19.512 10.116,-5.31 18.788,-12.449 27.829,-19.098 7.29,4.366 13.921,9.753 19.69,15.997 -0.924,1.175 -0.826,0.544 -1.521,1.937 z"
       fill="#efdcd5"
       id="path30" />
    <path
       d="m 282.68,255.102 c 7.872,2.649 15.404,6.222 22.439,10.642 4.171,2.63 8.144,5.561 11.888,8.771 l 4.347,-8.782 z"
       fill="#d89d75"
       id="path32" />
    <path
       d="m 314.289,325.629 c 0.293,4.809 -2.38,8.792 -6.412,9.946 -4.629,1.327 -9.03,-1.632 -9.388,-1.883 -2.88,-2.002 -4.619,-5.18 -5.847,-14.255 -0.977,-7.305 -1.127,-14.698 -0.445,-22.037"
       stroke="#181818"
       stroke-linecap="round"
       stroke-linejoin="round"
       id="path34" />
    <path
       d="m 297.316,338.11 c -0.608,1.012 -3.26,5.136 -8.28,5.822 -6.596,0.903 -12.084,-4.777 -13.66,-6.399 -5.846,-6.039 -6.226,-13.276 -6.617,-20.393 -0.398,-7.422 0.711,-14.848 3.26,-21.829"
       stroke="#181818"
       stroke-linecap="round"
       stroke-linejoin="round"
       id="path36" />
    <path
       d="m 255.958,329.251 c -1.708,-4.258 -2.582,-8.806 -2.575,-13.396 0,-5.354 1.358,-9.217 2.847,-13.57 1.605,-4.688 3.738,-9.179 6.357,-13.385"
       stroke="#181818"
       stroke-linecap="round"
       stroke-linejoin="round"
       id="path38" />
    <path
       d="m 284.842,96.7119 c 31.513,15.0821 53.115,50.7981 59.32,66.1301 3.447,8.765 5.893,17.891 7.292,27.206 0.13,0.936 0.228,1.773 0.304,2.611 1.608,16.324 -1.25,28.86 -4.205,41.352 -3.998,16.778 -10.165,32.962 -18.343,48.143 -20.392,-16.736 -45.816,-26.108 -72.176,-26.607 6.009,-3.667 21.929,-14.527 29.253,-35.171 2.506,-7.133 3.749,-14.649 3.673,-22.21 -1.788,-7.698 -4.514,-15.146 -8.118,-22.178 -8.845,-17.226 -16.299,-20.186 -25.982,-37.935 -6.237,-11.492 -13.365,-24.594 -7.9,-34.583 4.086,-7.4764 13.366,-9.7943 15.616,-10.3166 7.889,-1.8282 14.963,0.5441 21.266,3.5585 z"
       fill="#ffffff"
       id="path40" />
    <path
       d="m 342.238,158.49 c -6.446,7.517 -10.282,16.927 -10.932,26.814 -1.26,22.983 16.485,37.554 18.397,39.077"
       stroke="#181818"
       stroke-miterlimit="10"
       id="path42" />
    <path
       d="m 167.156,362.113 103.697,-59.955 90.785,157.469 -46.216,26.721 c -7.55,4.365 -15.883,7.198 -24.526,8.337 -8.643,1.139 -17.425,0.562 -25.845,-1.698 -8.42,-2.26 -16.312,-6.159 -23.228,-11.474 -6.915,-5.315 -12.717,-11.943 -17.074,-19.503 z"
       fill="#7ddb9d"
       id="path44" />
    <path
       d="m 316.651,257.429 c 6.05,5.755 10.908,12.646 14.297,20.282 3.39,7.635 5.245,15.864 5.459,24.217 0.214,8.353 -1.217,16.666 -4.211,24.465 -2.994,7.8 -7.493,14.932 -13.24,20.99 L 110.664,566.961 18.5331,479.315 226.826,259.737 c 11.606,-12.235 27.589,-19.351 44.435,-19.784 16.846,-0.433 33.173,5.853 45.39,17.476 z"
       fill="#7ddb9d"
       stroke="#181818"
       stroke-width="1.5"
       id="path46" />
    <path
       d="m 278.428,100.554 -38.707,18.194 c 1.826,-4.292 2.747,-8.915 2.706,-13.58 -0.14,-5.5954 -2.192,-10.973 -5.814,-15.2354 l 26.167,-9.7939 c -0.162,4.9951 1.658,9.8511 5.064,13.5047 2.974,3.059 6.589,5.4191 10.584,6.9106 z"
       fill="#d4986e"
       id="path48" />
    <path
       d="m 265.706,77.6344 c 6.042,-13.7002 1.39,-29.0307 -10.391,-34.2416 -11.781,-5.2109 -26.23,1.671 -32.273,15.3712 -6.042,13.7002 -1.39,29.0306 10.391,34.2415 11.781,5.2109 26.23,-1.671 32.273,-15.3711 z"
       fill="#f1c4af"
       id="path50" />
    <path
       d="m 272.702,73.521 c 3.24,-3.6448 3.375,-8.8221 0.3,-11.5636 -3.075,-2.7416 -8.195,-2.0094 -11.435,1.6354 -3.241,3.6449 -3.375,8.8221 -0.3,11.5637 3.075,2.7415 8.194,2.0093 11.435,-1.6355 z"
       fill="#f1c4af"
       id="path52" />
    <path
       d="m 261.479,64.3158 c -1.742,-5.405 -5.44,-9.962 -10.367,-12.7756 -11.04,-6.0396 -22.483,0.74 -22.972,1.0882 -4.694,-0.4788 -8.139,-4.157 -8.291,-7.9984 -0.185,-4.6466 4.488,-9.2715 10.356,-8.6295 1.467,-0.7508 11.508,-5.6804 22.179,-1.0882 9.562,4.1243 15.778,14.223 15.593,25.4859 -1.309,0.1406 -2.572,0.5672 -3.698,1.2498 -1.127,0.6825 -2.09,1.6044 -2.822,2.7004 z"
       fill="#181818"
       id="path54" />
    <path
       d="m 234.017,68.418 c -0.447,1.2474 -0.81,2.5235 -1.086,3.8196 -0.566,2.4702 -0.337,2.9273 -0.098,3.134 0.619,0.5659 1.934,0 2.303,-0.1306"
       stroke="#181818"
       stroke-miterlimit="10"
       stroke-linecap="round"
       id="path56" />
    <path
       d="m 236.344,80.6393 c 2.052,0.1601 4.113,-0.1758 6.009,-0.9794 3.175,-1.4421 5.681,-4.0416 7.009,-7.2693"
       stroke="#181818"
       stroke-miterlimit="10"
       stroke-linecap="round"
       id="path58" />
    <path
       d="m 242.328,62.7054 c 0.384,0 0.696,-0.3118 0.696,-0.6964 0,-0.3847 -0.312,-0.6965 -0.696,-0.6965 -0.384,0 -0.695,0.3118 -0.695,0.6965 0,0.3846 0.311,0.6964 0.695,0.6964 z"
       fill="#181818"
       stroke="#181818"
       stroke-width="2"
       stroke-miterlimit="10"
       stroke-linecap="round"
       id="path60" />
    <path
       d="m 229.289,65.4261 c 0.384,0 0.696,-0.3118 0.696,-0.6964 0,-0.3847 -0.312,-0.6965 -0.696,-0.6965 -0.384,0 -0.695,0.3118 -0.695,0.6965 0,0.3846 0.311,0.6964 0.695,0.6964 z"
       fill="#181818"
       stroke="#181818"
       stroke-width="2"
       stroke-miterlimit="10"
       stroke-linecap="round"
       id="path62" />
    <path
       d="m 263.945,64.4903 c 1.279,-0.8522 2.825,-1.2081 4.347,-1.0012 1.119,0.1716 2.168,0.6499 3.032,1.3821"
       stroke="#181818"
       stroke-miterlimit="10"
       stroke-linecap="round"
       id="path64" />
    <path
       d="m 339.283,269.313 c -47.579,19.66 -99.371,26.872 -150.502,20.959 17.897,-53.692 23.907,-92.03 25.819,-118.615 0.837,-11.796 2.174,-34.377 17.648,-54.215 7.837,-9.903 18.145,-17.561 29.883,-22.1993 8.693,-0.7291 21.113,-0.2721 31.665,6.9863 18.593,12.786 19.331,38.349 23.548,69.646 4.523,33.046 11.863,65.645 21.939,97.438 z"
       fill="#181818"
       id="path66" />
    <path
       d="m 158.44,209.744 c 3.358,12.939 10.356,39.948 4.868,42.332 -5.053,2.176 -21.678,-16.16 -25.829,-38.088 -3.423,-18.108 1.847,-37.782 6.9,-38.087 5.053,-0.305 10.41,19.762 14.061,33.843 z"
       fill="#4671f9"
       id="path68" />
    <path
       d="M 201.216,313.504 C 257.855,301.015 293.66,244.91 281.189,188.19 268.718,131.47 212.693,95.6137 156.054,108.103 99.4151,120.592 63.6098,176.697 76.0809,233.417 c 12.4711,56.72 68.4961,92.576 125.1351,80.087 z"
       fill="#fee066"
       stroke="#181818"
       stroke-miterlimit="10"
       id="path70" />
    <mask
       id="mask2_6483_28557"
       maskUnits="userSpaceOnUse"
       x="73"
       y="105"
       width="212"
       height="212">
      <path
         d="m 201.216,313.505 c 56.639,-12.489 92.444,-68.594 79.973,-125.314 -12.471,-56.72 -68.496,-92.5764 -125.135,-80.087 -56.6389,12.489 -92.4442,68.594 -79.9731,125.314 12.4711,56.72 68.4961,92.576 125.1351,80.087 z"
         fill="#fee066"
         stroke="#000000"
         stroke-miterlimit="10"
         id="path72" />
    </mask>
    <g
       mask="url(#mask2_6483_28557)"
       id="g93">
      <path
         d="M 88.0218,136.792 203.59,91.646 c 93.767,33.656 120.233,154.025 49.247,223.983 l -123.804,7.688 c 59.105,-58.309 37.069,-158.53 -41.0112,-186.525 z"
         stroke="#181818"
         stroke-miterlimit="10"
         id="path75" />
      <path
         d="M 145.762,302.461 272.98,290.618"
         stroke="#181818"
         stroke-miterlimit="10"
         id="path77" />
      <path
         d="m 156.684,279.471 129.43,-16.47"
         stroke="#181818"
         stroke-miterlimit="10"
         id="path79" />
      <path
         d="M 162.016,255.243 292.458,233.919"
         stroke="#181818"
         stroke-miterlimit="10"
         id="path81" />
      <path
         d="M 161.953,230.757 292.385,204.506"
         stroke="#181818"
         stroke-miterlimit="10"
         id="path83" />
      <path
         d="M 156.706,206.895 286.085,175.857"
         stroke="#181818"
         stroke-miterlimit="10"
         id="path85" />
      <path
         d="M 146.491,184.634 273.809,149.096"
         stroke="#181818"
         stroke-miterlimit="10"
         id="path87" />
      <path
         d="M 131.504,164.951 255.872,125.458"
         stroke="#181818"
         stroke-miterlimit="10"
         id="path89" />
      <path
         d="M 111.941,148.645 232.358,105.871"
         stroke="#181818"
         stroke-miterlimit="10"
         id="path91" />
    </g>
    <path
       d="m 188.587,313.754 c 52.924,-11.669 85.717,-67.11 73.246,-123.831 -12.471,-56.72 -65.484,-93.2403 -118.408,-81.571 -52.924,11.67 -85.7175,67.111 -73.2464,123.831 12.4711,56.72 65.4844,93.241 118.4084,81.571 z"
       fill="#fee066"
       id="path95" />
    <path
       d="m 164.575,106.198 c 8.405,0.566 46.364,4.007 74.005,35.659 19.723,22.61 23.476,47.318 24.666,55.904 1.455,10.494 5.772,45.931 -18.193,78.174 -23.229,31.24 -56.986,37.921 -64.83,39.262"
       stroke="#181818"
       stroke-miterlimit="10"
       stroke-linecap="round"
       id="path97" />
    <path
       fill-rule="evenodd"
       clip-rule="evenodd"
       d="m 120.321,143.689 c 0.308,-0.232 0.696,-0.332 1.077,-0.279 0.382,0.052 0.727,0.254 0.961,0.561 l 97.46,115.58 c 0.259,0.283 0.398,0.657 0.386,1.042 -0.012,0.384 -0.172,0.749 -0.448,1.016 -0.152,0.114 -0.324,0.198 -0.508,0.245 -0.183,0.048 -0.374,0.059 -0.562,0.032 -0.188,-0.027 -0.369,-0.09 -0.532,-0.186 -0.163,-0.097 -0.306,-0.225 -0.42,-0.376 L 120.231,145.771 c -0.134,-0.141 -0.238,-0.308 -0.307,-0.49 -0.068,-0.182 -0.099,-0.376 -0.09,-0.57 0.008,-0.195 0.056,-0.385 0.14,-0.561 0.083,-0.175 0.202,-0.332 0.347,-0.461 z"
       fill="#181818"
       id="path99" />
    <path
       fill-rule="evenodd"
       clip-rule="evenodd"
       d="m 120.078,143.41 c 0.193,-0.146 0.412,-0.252 0.645,-0.312 0.234,-0.061 0.477,-0.074 0.716,-0.041 0.239,0.034 0.468,0.115 0.676,0.238 0.207,0.123 0.389,0.286 0.533,0.479 l 97.444,115.583 c 0.175,0.168 0.313,0.371 0.404,0.596 0.092,0.224 0.135,0.466 0.128,0.708 -0.007,0.243 -0.065,0.481 -0.17,0.7 -0.105,0.219 -0.254,0.413 -0.439,0.571 -0.184,0.157 -0.4,0.274 -0.632,0.343 -0.232,0.069 -0.477,0.088 -0.717,0.057 -0.24,-0.031 -0.471,-0.113 -0.678,-0.239 -0.207,-0.126 -0.386,-0.295 -0.524,-0.494 L 120.005,146.02 c -0.168,-0.176 -0.299,-0.383 -0.386,-0.61 -0.088,-0.226 -0.129,-0.468 -0.122,-0.711 0.007,-0.242 0.062,-0.481 0.161,-0.703 0.1,-0.221 0.243,-0.42 0.42,-0.586 z m 2.289,0.592 c -0.234,-0.306 -0.579,-0.508 -0.961,-0.561 -0.382,-0.053 -0.769,0.047 -1.077,0.279 -0.139,0.13 -0.25,0.286 -0.328,0.459 -0.077,0.174 -0.12,0.361 -0.124,0.55 -0.005,0.19 0.028,0.379 0.097,0.556 0.07,0.177 0.173,0.338 0.305,0.474 l 97.448,115.599 c 0.107,0.164 0.247,0.304 0.412,0.409 0.165,0.105 0.35,0.175 0.544,0.203 0.194,0.028 0.391,0.014 0.579,-0.04 0.188,-0.054 0.362,-0.147 0.511,-0.274 0.149,-0.127 0.27,-0.284 0.354,-0.461 0.083,-0.177 0.128,-0.37 0.132,-0.566 0.003,-0.196 -0.035,-0.39 -0.112,-0.57 -0.077,-0.18 -0.192,-0.342 -0.336,-0.474 z"
       fill="#181818"
       id="path101" />
    <path
       fill-rule="evenodd"
       clip-rule="evenodd"
       d="m 109.686,152.685 c 0.308,-0.232 0.695,-0.333 1.077,-0.28 0.382,0.053 0.727,0.255 0.961,0.562 l 97.459,115.579 c 0.26,0.284 0.398,0.657 0.387,1.042 -0.012,0.384 -0.173,0.749 -0.449,1.016 -0.151,0.115 -0.323,0.198 -0.507,0.246 -0.184,0.047 -0.375,0.058 -0.563,0.031 -0.187,-0.026 -0.368,-0.09 -0.531,-0.186 -0.164,-0.097 -0.306,-0.224 -0.42,-0.376 L 109.636,154.724 c -0.262,-0.278 -0.405,-0.648 -0.395,-1.03 0.009,-0.382 0.169,-0.745 0.445,-1.009 z"
       fill="#181818"
       id="path103" />
    <path
       fill-rule="evenodd"
       clip-rule="evenodd"
       d="m 108.181,192.666 c -0.264,-0.282 -0.405,-0.656 -0.393,-1.042 0.011,-0.386 0.175,-0.751 0.455,-1.016 l 44.529,-37.649 c 9.656,-8.18 24.928,-5.995 34.089,4.869 9.162,10.864 8.761,26.33 -0.905,34.463 l -24.97,21.133 c -0.314,0.12 -0.657,0.139 -0.983,0.055 -0.325,-0.084 -0.616,-0.267 -0.833,-0.524 -0.217,-0.257 -0.349,-0.575 -0.378,-0.911 -0.028,-0.335 0.048,-0.671 0.219,-0.961 l 24.966,-21.149 c 8.495,-7.193 8.862,-20.773 0.797,-30.349 -8.065,-9.576 -21.516,-11.481 -30.026,-4.285 l -44.53,37.648 c -0.308,0.232 -0.695,0.333 -1.077,0.28 -0.381,-0.053 -0.727,-0.255 -0.96,-0.562 z"
       fill="#181818"
       id="path105" />
    <path
       fill-rule="evenodd"
       clip-rule="evenodd"
       d="m 158.943,213.108 c -0.264,-0.279 -0.407,-0.652 -0.399,-1.037 0.009,-0.384 0.169,-0.75 0.445,-1.018 l 27.213,-23.007 c 9.66,-8.165 24.912,-5.992 34.074,4.872 9.162,10.864 8.761,26.33 -0.921,34.466 l -46.77,39.539 c -0.152,0.114 -0.324,0.198 -0.508,0.245 -0.183,0.048 -0.375,0.058 -0.562,0.032 -0.188,-0.027 -0.369,-0.09 -0.532,-0.186 -0.163,-0.097 -0.306,-0.225 -0.42,-0.377 -0.264,-0.279 -0.407,-0.652 -0.399,-1.037 0.009,-0.384 0.169,-0.75 0.445,-1.018 l 46.735,-39.547 c 8.511,-7.197 8.878,-20.777 0.813,-30.353 -8.065,-9.576 -21.5,-11.485 -30.011,-4.288 l -27.213,23.007 c -0.305,0.22 -0.683,0.313 -1.054,0.258 -0.372,-0.054 -0.708,-0.252 -0.936,-0.551 z"
       fill="#181818"
       id="path107" />
    <path
       d="m 185.623,300.281 c 45.983,-10.139 74.477,-58.307 63.642,-107.586 -10.835,-49.28 -56.896,-81.009 -102.879,-70.869 -45.984,10.139 -74.4775,58.307 -63.6424,107.586 10.8351,49.28 56.8954,81.009 102.8794,70.869 z"
       stroke="#181818"
       stroke-miterlimit="10"
       id="path109" />
    <path
       d="m 178.947,235.589 -12.659,1.284 c -10.66,1.088 -21.505,2.177 -31.372,6.366 -8.791,3.711 -16.387,9.685 -23.439,16.008 -5.238,4.701 -14.0181,8.967 -20.8966,5.016 -1.9995,-1.142 -5.9658,-7.617 -2.771,-9.565 -1.5243,0.997 -3.2339,1.676 -5.0264,1.996 -1.7926,0.319 -3.6311,0.274 -5.4055,-0.135 -9.1714,-2.264 -8.1934,-12.275 -6.3026,-19.588 -3.9337,-0.435 -6.1505,-3.036 -6.9546,-6.845 -1.2279,-5.822 1.6626,-11.894 5.944,-16.007 4.2814,-4.114 9.7799,-6.671 15.2132,-9.141 -1.9451,-0.425 -2.8688,-2.906 -2.2712,-4.81 0.7713,-1.855 2.1513,-3.39 3.912,-4.353 9.78,-6.399 22.2117,-6.703 33.8387,-5.822 10.747,0.805 21.646,2.503 31.23,7.432 10.867,5.583 22.711,8.935 34.284,12.874 -0.185,8.681 -1.721,17.279 -4.553,25.486 -1.727,-0.098 -1.086,-0.37 -2.771,-0.196 z"
       fill="#f1c4af"
       id="path111" />
    <path
       opacity="0.92"
       d="m 67.5466,222.344 c 0.5879,-0.715 1.4354,-1.167 2.3562,-1.257 0.9208,-0.09 1.8394,0.191 2.5537,0.779 l 1.2503,1.031 c 0.7143,0.588 1.1659,1.437 1.2554,2.359 0.0895,0.922 -0.1905,1.842 -0.7783,2.558 l -0.5179,0.63 c -0.7325,0.891 -1.7886,1.455 -2.936,1.567 -1.1474,0.111 -2.2921,-0.238 -3.1822,-0.972 -0.8902,-0.733 -1.4529,-1.791 -1.5644,-2.94 -0.1115,-1.149 0.2374,-2.295 0.9699,-3.187 z"
       fill="#d89d75"
       id="path113" />
    <path
       opacity="0.92"
       d="m 76.0584,241.299 c 0.5878,-0.715 1.4353,-1.167 2.3561,-1.257 0.9208,-0.089 1.8394,0.191 2.5537,0.78 l 1.8293,1.507 c 0.7143,0.589 1.1659,1.437 1.2554,2.359 0.0894,0.923 -0.1905,1.842 -0.7783,2.558 l -0.5179,0.63 c -0.7325,0.892 -1.7886,1.455 -2.936,1.567 -1.1474,0.111 -2.2921,-0.238 -3.1822,-0.972 l -0.579,-0.477 c -0.8902,-0.733 -1.4529,-1.791 -1.5644,-2.94 -0.1115,-1.149 0.2374,-2.295 0.9699,-3.187 z"
       fill="#d89d75"
       id="path115" />
    <path
       opacity="0.92"
       d="m 91.5236,252.808 c 0.5878,-0.716 1.4353,-1.168 2.3561,-1.257 0.9208,-0.09 1.8394,0.19 2.5538,0.779 l 2.1229,1.749 c 0.7144,0.589 1.1659,1.438 1.2554,2.36 0.0894,0.922 -0.1905,1.842 -0.7783,2.557 -0.7325,0.892 -1.7886,1.455 -2.936,1.567 -1.1474,0.112 -2.2921,-0.238 -3.1823,-0.971 L 92.0761,258.9 c -0.8738,-0.738 -1.4217,-1.792 -1.5252,-2.932 -0.1034,-1.141 0.2461,-2.276 0.9727,-3.16 z"
       fill="#d89d75"
       id="path117" />
    <path
       d="m 154.918,198.394 c 2.985,13.057 3.115,26.607 0.38,39.719 l 10.986,-1.24 z"
       fill="#d89d75"
       id="path119" />
    <path
       d="m 87.8086,254.698 c 2.7416,-4.515 6.0868,-8.634 9.9429,-12.242 6.1055,-5.666 13.3485,-9.963 21.2445,-12.602"
       stroke="#181818"
       stroke-linecap="round"
       stroke-linejoin="round"
       id="path121" />
    <path
       d="m 71.0742,237.004 c 4.335,-6.67 10.0115,-12.361 16.6668,-16.71 6.6554,-4.349 14.143,-7.26 21.986,-8.547"
       stroke="#181818"
       stroke-linecap="round"
       stroke-linejoin="round"
       id="path123" />
    <path
       d="m 67.5508,217.003 c 3.2717,-3.868 7.2052,-7.122 11.6163,-9.609 5.2486,-2.938 9.7799,-3.972 14.8438,-5.136 5.4637,-1.233 11.0371,-1.915 16.6371,-2.035"
       stroke="#181818"
       stroke-linecap="round"
       stroke-linejoin="round"
       id="path125" />
    <path
       d="m 312.115,144.908 c 2.032,19.033 5.248,53.519 -13.214,90.659 -3.135,8.14 -8.275,15.354 -14.941,20.97 -8.639,7.117 -19.951,11.22 -41.293,11.633 -32.252,0.61 -61.353,-7.791 -83.206,-16.758 3.563,-26.162 -1.769,-52.763 -15.137,-75.522 14.54,1.774 29.644,3.928 45.227,6.529 17.227,2.902 33.69,6.083 49.388,9.544 -0.456,-9.544 -0.945,-17.912 -1.423,-25.029 -2,-29.534 -1.087,-44.562 6.161,-53.584 8.835,-11.056 25.732,-16.6058 37.153,-12.851 9.051,3.444 16.902,9.457 22.592,17.302 5.824,8.184 7.606,16.563 8.693,27.107 z"
       fill="#467df9"
       id="path127" />
    <mask
       id="mask3_6483_28557"
       maskUnits="userSpaceOnUse"
       x="144"
       y="99"
       width="170"
       height="170">
      <path
         d="m 312.115,144.908 c 2.032,19.033 5.248,53.519 -13.214,90.659 -3.135,8.14 -8.275,15.354 -14.941,20.97 -8.639,7.117 -19.951,11.22 -41.293,11.633 -32.252,0.61 -61.353,-7.791 -83.206,-16.758 3.563,-26.162 -1.769,-52.763 -15.137,-75.522 14.54,1.774 29.644,3.928 45.227,6.529 17.227,2.902 33.69,6.083 49.388,9.544 -0.456,-9.544 -0.945,-17.912 -1.423,-25.029 -2,-29.534 -1.087,-44.562 6.161,-53.584 8.835,-11.056 25.732,-16.6058 37.153,-12.851 9.051,3.444 16.902,9.457 22.592,17.302 5.824,8.184 7.606,16.563 8.693,27.107 z"
         fill="#ffffff"
         id="path129" />
    </mask>
    <g
       mask="url(#mask3_6483_28557)"
       id="g154">
      <path
         d="M -9.63809,10.948 C 14.2684,120.564 90.0084,161.121 150.981,163.298 c 62.83,2.361 110.839,-33.626 121.944,-72.4535 37.262,3.0144 88.237,-14.9085 108.427,-81.7029 17.789,31.3978 25.616,67.4728 22.443,103.4324 -3.174,35.959 -17.198,70.1 -40.21,97.887 -47.324,60.047 -140.429,99.963 -242.324,85.816 C 25.135,236.121 -26.1987,132.458 -9.63809,10.948 Z"
         fill="#ffffff"
         stroke="#181818"
         stroke-miterlimit="10"
         id="path132" />
      <path
         d="M 77.1211,262.652 C 172.312,293.187 268.025,267.07 322.271,217.698 378.386,168.522 393.077,96.0902 368.997,38.5674"
         fill="#ffffff"
         id="path134" />
      <path
         d="M 77.1211,262.652 C 172.312,293.187 268.025,267.07 322.271,217.698 378.386,168.522 393.077,96.0902 368.997,38.5674"
         stroke="#181818"
         stroke-miterlimit="10"
         id="path136" />
      <path
         d="m 40.9141,222.55 c 85.8459,46.717 181.7979,34.235 241.0099,-4.603 61.048,-38.632 85.367,-103.62 70.632,-157.3122"
         fill="#ffffff"
         id="path138" />
      <path
         d="m 40.9141,222.55 c 85.8459,46.717 181.7979,34.235 241.0099,-4.603 61.048,-38.632 85.367,-103.62 70.632,-157.3122"
         stroke="#181818"
         stroke-miterlimit="10"
         id="path140" />
      <path
         d="m 13.4961,176.617 c 73.8927,62.714 167.9099,63.693 230.1649,35.269 64.113,-28.228 96.462,-85.849 89.823,-135.7649"
         fill="#ffffff"
         id="path142" />
      <path
         d="m 13.4961,176.617 c 73.8927,62.714 167.9099,63.693 230.1649,35.269 64.113,-28.228 96.462,-85.849 89.823,-135.7649"
         stroke="#181818"
         stroke-miterlimit="10"
         id="path144" />
      <path
         d="M -4.41016,125.581 C 55.1386,204.084 145.049,218.383 208.575,200.265 273.926,182.342 312.894,131.99 313.154,85.8066"
         fill="#ffffff"
         id="path146" />
      <path
         d="M -4.41016,125.581 C 55.1386,204.084 145.049,218.383 208.575,200.265 273.926,182.342 312.894,131.99 313.154,85.8066"
         stroke="#181818"
         stroke-miterlimit="10"
         id="path148" />
      <path
         d="M -12.2578,70.125 C 30.5891,164.266 114.392,191.743 177.429,183.81 242.313,176.084 286.432,132.947 292.615,90.4419"
         fill="#ffffff"
         id="path150" />
      <path
         d="M -12.2578,70.125 C 30.5891,164.266 114.392,191.743 177.429,183.81 242.313,176.084 286.432,132.947 292.615,90.4419"
         stroke="#181818"
         stroke-miterlimit="10"
         id="path152" />
    </g>
    <path
       d="m 336.022,312.308 -30.427,-4.08 c 0.889,2.702 1.501,5.487 1.826,8.313 0.837,7.843 -0.423,15.768 -3.651,22.962 0.724,7.552 1.448,15.108 2.173,22.667"
       stroke="#181818"
       stroke-linecap="round"
       stroke-linejoin="bevel"
       id="path156" />
  </g>
</svg>
