<svg xmlns="http://www.w3.org/2000/svg" viewBox="0 0 500 500"><g id="freepik--Shadow--inject-31"><ellipse cx="247.49" cy="433.59" rx="212" ry="6.07" style="fill:#f0f0f0"></ellipse></g><g id="freepik--Briefcase--inject-31"><path d="M237.71,378.27v-9.5a.59.59,0,0,0-.59-.6H232v-1.53h5.16a2.14,2.14,0,0,1,2.13,2.13v9.5Z" style="fill:#263238"></path><path d="M202.06,368.77v9.5h-1.54v-9.5a2.14,2.14,0,0,1,2.13-2.13h5.16v1.53h-5.16A.6.6,0,0,0,202.06,368.77Z" style="fill:#263238"></path><path d="M180.31,382.29v47.92a4,4,0,0,0,4,4h69.17a4,4,0,0,0,4-4V382.29a4,4,0,0,0-4-4H184.34A4,4,0,0,0,180.31,382.29Z" style="fill:#407BFF"></path><g style="opacity:0.30000000000000004"><path d="M180.31,382.29v47.92a4,4,0,0,0,4,4h69.17a4,4,0,0,0,4-4V382.29a4,4,0,0,0-4-4H184.34A4,4,0,0,0,180.31,382.29Z" style="fill:#fff"></path></g><rect x="190.46" y="378.27" width="3.07" height="55.98" style="fill:#263238"></rect><rect x="244.32" y="378.27" width="3.07" height="55.98" style="fill:#263238"></rect><rect x="206.23" y="364.85" width="27.86" height="5.11" transform="translate(440.32 734.81) rotate(180)" style="fill:#407BFF"></rect></g><g id="freepik--Coin--inject-31"><polygon points="282.16 373.35 286.14 373.45 285.81 388.98 293.54 395.73 291.52 406.51 297.09 412.92 289.43 406.58 290.75 397.16 282.76 390 282.16 373.35" style="fill:#407BFF"></polygon><polygon points="282.16 373.35 286.14 373.45 285.81 388.98 293.54 395.73 291.52 406.51 297.09 412.92 289.43 406.58 290.75 397.16 282.76 390 282.16 373.35" style="opacity:0.6000000000000001"></polygon><path d="M325.56,397.55c.09.4.17.8.23,1.2a32.93,32.93,0,0,1-49.85,33.58c-.67-.42-1.33-.86-2-1.32a33,33,0,0,1-7.35-7.37c-.4-.55-.79-1.12-1.16-1.7a33,33,0,0,1-4.6-12q-.11-.6-.18-1.2a33,33,0,0,1,21.48-35.39l.25,7,.1,2.53.25,7.09,2.08,1.86,1.1,1,4.69,4.2.12.11-.24,1.68-.07.59-.14,1-.87,6.17.88.74,1.8,1.48,2.52,2.08,1.42,1.18,1,.86-.56-1-.7-1.31-.92-1.69-.78-1.42-.91-1.69,1-4.49h0l.31-1.39.55-2.39.32-1.42.74-3.22-7.65-5.27-.19-.14-.6-.41.36-1,.06-.19.06-.15,1.89-5.09.94-2.54,2.49-6.72a32.72,32.72,0,0,1,6.8.75c.78.17,1.55.36,2.31.59a33.05,33.05,0,0,1,9.27,4.4c.62.43,1.23.87,1.82,1.34a33.42,33.42,0,0,1,5.68,5.72,33,33,0,0,1,4.25,7.28A32,32,0,0,1,325.56,397.55Z" style="fill:#407BFF"></path><path d="M325.56,397.55c.09.4.17.8.23,1.2a32.93,32.93,0,0,1-49.85,33.58c-.67-.42-1.33-.86-2-1.32a33,33,0,0,1-7.35-7.37c-.4-.55-.79-1.12-1.16-1.7a33,33,0,0,1-4.6-12q-.11-.6-.18-1.2a33,33,0,0,1,21.48-35.39l.25,7,.1,2.53.25,7.09,2.08,1.86,1.1,1,4.69,4.2.12.11-.24,1.68-.07.59-.14,1-.87,6.17.88.74,1.8,1.48,2.52,2.08,1.42,1.18,1,.86-.56-1-.7-1.31-.92-1.69-.78-1.42-.91-1.69,1-4.49h0l.31-1.39.55-2.39.32-1.42.74-3.22-7.65-5.27-.19-.14-.6-.41.36-1,.06-.19.06-.15,1.89-5.09.94-2.54,2.49-6.72a32.72,32.72,0,0,1,6.8.75c.78.17,1.55.36,2.31.59a33.05,33.05,0,0,1,9.27,4.4c.62.43,1.23.87,1.82,1.34a33.42,33.42,0,0,1,5.68,5.72,33,33,0,0,1,4.25,7.28A32,32,0,0,1,325.56,397.55Z" style="fill:#407BFF"></path><path d="M282.41,380.38l.1,2.53a26.38,26.38,0,0,0-14.9,27.1c-.09-.39-.16-.79-.23-1.19A26.38,26.38,0,0,1,282.41,380.38Z" style="opacity:0.6000000000000001"></path><path d="M319.28,399.87q.11.61.18,1.2c-.14-.65-.31-1.29-.5-1.92a26.32,26.32,0,0,0-10.09-13.95c-.61-.44-1.25-.84-1.89-1.22a26.37,26.37,0,0,0-9.87-3.37c-.86-.11-1.74-.18-2.61-.21a26.18,26.18,0,0,0-4.4.26l.94-2.54A26.36,26.36,0,0,1,319.28,399.87Z" style="opacity:0.6000000000000001"></path><g style="opacity:0.30000000000000004"><path d="M319.46,401.07a26.35,26.35,0,0,1-21.66,29.22,8,8,0,0,1-.92.15h0l-.94.11-.24,0-1,.07h-.14a25.59,25.59,0,0,1-3.28-.06l-1.08-.1c-.73-.09-1.44-.21-2.15-.36h0l-.69-.15-.37-.1a5.36,5.36,0,0,1-.54-.14c-.28-.07-.56-.15-.83-.24s-.71-.23-1.06-.35l-1-.39-.85-.37-.54-.25-.44-.2-.5-.26-.79-.43c-.23-.13-.46-.26-.68-.41l-.16-.09-.94-.61-.87-.61,0,0-.52-.39-.5-.41-.47-.39-.5-.44c-.15-.15-.31-.29-.48-.44l-.45-.44c-.32-.31-.62-.64-.92-1-.13-.13-.25-.27-.37-.41-.3-.33-.58-.68-.85-1a6.26,6.26,0,0,1-.39-.51,19.44,19.44,0,0,1-1.16-1.69c-.11-.16-.2-.31-.3-.47-.2-.35-.41-.7-.61-1.06l0-.05c-.19-.36-.38-.72-.56-1.09-.07-.17-.16-.35-.24-.52l-.11-.27c-.09-.17-.16-.36-.24-.54a.79.79,0,0,0,0-.09c-.09-.21-.17-.42-.24-.64a6.93,6.93,0,0,1-.26-.72c-.09-.23-.17-.47-.24-.71s-.12-.38-.18-.58l-.1-.37c-.05-.17-.09-.35-.14-.52s-.11-.5-.17-.75a26.38,26.38,0,0,1,14.9-27.1l.25,7.09,2.08,1.86,1.1,1,4.69,4.2.12.11-.24,1.68-.07.59-.14,1-.87,6.17.88.74,1.8,1.48,2.52,2.08,1.42,1.18,1,.86-.56-1-.7-1.31-.92-1.69-.78-1.42-.91-1.69,1-4.49h0l.31-1.39.55-2.39.32-1.42.74-3.22-7.65-5.27-.19-.14-.6-.41.36-1,.06-.19.06-.15,1.89-5.09a26.18,26.18,0,0,1,4.4-.26c.87,0,1.75.1,2.61.21A26.37,26.37,0,0,1,307,384c.64.38,1.28.78,1.89,1.22A26.32,26.32,0,0,1,319,399.15C319.15,399.78,319.32,400.42,319.46,401.07Z"></path></g><g style="opacity:0.6000000000000001"><path d="M306.55,406.37h0c-1.93-5.07-8.09-4.93-12.29-5.05h0l-1,4.49.91,1.69.78,1.42a6,6,0,0,1,2.66.6,1.13,1.13,0,0,1,.49.74c.11.68-.29,1.23-1.53,1.66l.56,1-1-.86c-.37.1-.79.19-1.27.28a18.91,18.91,0,0,1-9.4-.94l-1.51,6-.29,1.16a23,23,0,0,0,10.3,1H294l.46,2.68.25,1.43,5.48-.94-.75-4.31c5.84-2.08,8.24-6.26,7.52-10.46A9.09,9.09,0,0,0,306.55,406.37Zm-15.92-9.32-4.69-4.2c-3.86,2.24-5.38,5.67-4.77,9.2l0,.21s0,0,0,0c1.14,5.73,6.52,6.32,10.9,6.5l-1.8-1.48-.88-.74.87-6.17a1.06,1.06,0,0,1-.16-.38,1.35,1.35,0,0,1,.07-.72,1.76,1.76,0,0,1,.3-.47l.24-1.68Zm11.6-6a21.23,21.23,0,0,0-7.59-.67l-.25-1.42-.47-2.73-.15,0-5.32.91.07.43,7.65,5.27-.74,3.22-.32,1.42a18,18,0,0,1,6.19.89l1.61-7.12Z"></path></g><path d="M294.56,399.92l-.31,1.39h0l-1,4.49.91,1.69c1.95.1,3.35.35,3.53,1.36a1,1,0,0,1-.09.66c-.21.43-.75.79-1.74,1.09l.7,1.31.56,1-1-.86-1.42-1.18-.26.05A18.86,18.86,0,0,1,285,410l-1.8,7.18c.22.09.44.17.69.25a24.23,24.23,0,0,0,9.76.75l.25,1.42.46,2.7.15,0,5.32-.92-.74-4.31c5.84-2.08,8.24-6.26,7.52-10.46l0-.22C305.33,400.18,299.1,400,294.56,399.92Zm-4.83-1.31a1.48,1.48,0,0,1,.9-1.56l-4.69-4.2-1.1-1c-3.34,2.25-4.65,5.47-4.08,8.78a8.12,8.12,0,0,0,.45,1.62s0,0,0,0c1.49,3.92,5.44,4.76,9.1,5l-.88-.74.87-6.17.14-1a1.67,1.67,0,0,1-.23-.12A1,1,0,0,1,289.73,398.61Zm4.66-9.62h-.16l-.46-2.72-.25-1.44-5.31.91-.06.15-.06.19.24,1.39.19.14,7.65,5.27-.74,3.22a18.91,18.91,0,0,1,5.46.9l1.34-5.93.27-1.19A20.61,20.61,0,0,0,294.39,389Z" style="fill:#407BFF"></path></g><g id="freepik--Virus--inject-31"><path d="M191.67,98.77,193.43,91a.68.68,0,0,0-1.14-.64l-5.72,5.54S188.45,99.06,191.67,98.77Z" style="fill:#407BFF"></path><g style="opacity:0.4"><path d="M191.67,98.77,193.43,91a.68.68,0,0,0-1.14-.64l-5.72,5.54S188.45,99.06,191.67,98.77Z" style="fill:#fff"></path></g><path d="M196.51,113.77l3.32-.65,1.66-.32,2.83-.55a.68.68,0,0,0,.12-1.3l-3.61-1.47L197.06,108S195,110.94,196.51,113.77Z" style="fill:#407BFF"></path><g style="opacity:0.4"><path d="M196.51,113.77l3.32-.65,1.66-.32,2.83-.55a.68.68,0,0,0,.12-1.3l-3.61-1.47L197.06,108S195,110.94,196.51,113.77Z" style="fill:#fff"></path></g><path d="M171.5,100.17,164,97.5a.68.68,0,0,0-.77,1l4.81,6.34S171.4,103.4,171.5,100.17Z" style="fill:#407BFF"></path><g style="opacity:0.4"><path d="M171.5,100.17,164,97.5a.68.68,0,0,0-.77,1l4.81,6.34S171.4,103.4,171.5,100.17Z" style="fill:#fff"></path></g><path d="M195.24,108.67l6.55-4.51a.68.68,0,0,0-.4-1.24l-8,.19S192.68,106.7,195.24,108.67Z" style="fill:#407BFF"></path><path d="M195.24,108.67l6.55-4.51a.68.68,0,0,0-.4-1.24l-8,.19S192.68,106.7,195.24,108.67Z" style="fill:#fff;opacity:0.4"></path><path d="M173.41,119l-2.11,7.66a.68.68,0,0,0,1.1.69l6-5.27S176.64,118.81,173.41,119Z" style="fill:#407BFF"></path><g style="opacity:0.4"><path d="M173.41,119l-2.11,7.66a.68.68,0,0,0,1.1.69l6-5.27S176.64,118.81,173.41,119Z" style="fill:#fff"></path></g><path d="M181.35,124.1l4.5,6.55a.68.68,0,0,0,1.24-.4l-.19-8S183.32,121.54,181.35,124.1Z" style="fill:#407BFF"></path><g style="opacity:0.4"><path d="M181.35,124.1l4.5,6.55a.68.68,0,0,0,1.24-.4l-.19-8S183.32,121.54,181.35,124.1Z" style="fill:#fff"></path></g><path d="M160.66,112.11l6.55,1.27a14.88,14.88,0,0,0,.86,2.37l-3.71,3.64a.68.68,0,0,0,.61,1.15l5.46-1.09a15.47,15.47,0,0,0,1.51,1.52,16.22,16.22,0,0,0,2.64,1.86,15.49,15.49,0,0,0,17.1-1.31l.36-.29.49-.42.06-.06,1.33.34,2.8.72a.67.67,0,0,0,.66-1.11L194.94,118,195,118c.23-.34.44-.69.64-1a15.46,15.46,0,0,0-17.95-22.37L175.11,91a.68.68,0,0,0-1.23.44l.23,4.69c-.42.26-.82.53-1.22.82a15.54,15.54,0,0,0-4.24,4.84,15.36,15.36,0,0,0-2,6.53l-6.17,2.52A.68.68,0,0,0,160.66,112.11Z" style="fill:#407BFF"></path><g style="opacity:0.5"><path d="M160.66,112.11l6.55,1.27a14.88,14.88,0,0,0,.86,2.37l-3.71,3.64a.68.68,0,0,0,.61,1.15l5.46-1.09a15.47,15.47,0,0,0,1.51,1.52,16.22,16.22,0,0,0,2.64,1.86,15.49,15.49,0,0,0,17.1-1.31l.36-.29.49-.42.06-.06,1.33.34,2.8.72a.67.67,0,0,0,.66-1.11L194.94,118,195,118c.23-.34.44-.69.64-1a15.46,15.46,0,0,0-17.95-22.37L175.11,91a.68.68,0,0,0-1.23.44l.23,4.69c-.42.26-.82.53-1.22.82a15.54,15.54,0,0,0-4.24,4.84,15.36,15.36,0,0,0-2,6.53l-6.17,2.52A.68.68,0,0,0,160.66,112.11Z" style="fill:#fff"></path></g><g style="opacity:0.5"><path d="M173.69,104a10.15,10.15,0,1,0,13.81-3.9A10.14,10.14,0,0,0,173.69,104Z" style="fill:#fff"></path></g><g style="opacity:0.2"><path d="M184.82,102c1.12-.94,2.92-.36,4.34.82a7,7,0,0,1,2.35,5c.48,4.22-2.74,9.85-7.29,9.2s-3-5,.35-5.59,3.63-4.94.67-7.12C183.92,103.29,184.16,102.52,184.82,102Z" style="fill:#407BFF"></path></g><g style="opacity:0.2"><path d="M181.44,105a5.29,5.29,0,0,1,2.33.37c1,.43,2.09,1.29,1.47,2.93-1,2.54-4.54,0-6.23,1.93-2,2.25-5.62.34-4.55-2.13S179.68,105.13,181.44,105Z" style="fill:#407BFF"></path></g><g style="opacity:0.2"><path d="M177,112.2a2.87,2.87,0,0,1,3,1.55,2,2,0,0,1-.3,2.32c-1.62,2-4.71-1.69-4.13-3A1.72,1.72,0,0,1,177,112.2Z" style="fill:#407BFF"></path></g><g style="opacity:0.2"><path d="M181.8,100.08a2.26,2.26,0,0,1,1.5.71,1.57,1.57,0,0,1-.11,2.31c-1.6,1.89-4.31-1.08-3.65-2.25C180,100.09,181.08,100,181.8,100.08Z" style="fill:#407BFF"></path></g><g style="opacity:0.2"><path d="M177.61,105a1.77,1.77,0,0,1-1.3-.06,1.25,1.25,0,0,1-.63-1.72c.59-1.86,3.47-.52,3.35.53C179,104.39,178.15,104.77,177.61,105Z" style="fill:#407BFF"></path></g><path d="M308.25,275.89l1.76-7.75a.68.68,0,0,0-1.14-.64L303.15,273S305,276.18,308.25,275.89Z" style="fill:#407BFF"></path><g style="opacity:0.4"><path d="M308.25,275.89l1.76-7.75a.68.68,0,0,0-1.14-.64L303.15,273S305,276.18,308.25,275.89Z" style="fill:#fff"></path></g><path d="M313.09,290.89l3.32-.65,1.66-.32,2.83-.56a.67.67,0,0,0,.12-1.29l-3.61-1.47-3.77-1.52S311.53,288.06,313.09,290.89Z" style="fill:#407BFF"></path><g style="opacity:0.4"><path d="M313.09,290.89l3.32-.65,1.66-.32,2.83-.56a.67.67,0,0,0,.12-1.29l-3.61-1.47-3.77-1.52S311.53,288.06,313.09,290.89Z" style="fill:#fff"></path></g><path d="M288.08,277.29l-7.49-2.67a.68.68,0,0,0-.77,1.05l4.81,6.34S288,280.52,288.08,277.29Z" style="fill:#407BFF"></path><g style="opacity:0.4"><path d="M288.08,277.29l-7.49-2.67a.68.68,0,0,0-.77,1.05l4.81,6.34S288,280.52,288.08,277.29Z" style="fill:#fff"></path></g><path d="M311.82,285.78l6.55-4.51A.68.68,0,0,0,318,280l-8,.19S309.26,283.82,311.82,285.78Z" style="fill:#407BFF"></path><path d="M311.82,285.78l6.55-4.51A.68.68,0,0,0,318,280l-8,.19S309.26,283.82,311.82,285.78Z" style="fill:#fff;opacity:0.4"></path><path d="M290,296.06l-2.11,7.67a.68.68,0,0,0,1.1.69l6-5.27S293.22,295.93,290,296.06Z" style="fill:#407BFF"></path><g style="opacity:0.4"><path d="M290,296.06l-2.11,7.67a.68.68,0,0,0,1.1.69l6-5.27S293.22,295.93,290,296.06Z" style="fill:#fff"></path></g><path d="M297.93,301.22l4.5,6.55a.68.68,0,0,0,1.24-.4l-.19-8S299.9,298.66,297.93,301.22Z" style="fill:#407BFF"></path><g style="opacity:0.4"><path d="M297.93,301.22l4.5,6.55a.68.68,0,0,0,1.24-.4l-.19-8S299.9,298.66,297.93,301.22Z" style="fill:#fff"></path></g><path d="M277.24,289.23l6.55,1.27a14.88,14.88,0,0,0,.86,2.37l-3.7,3.64a.68.68,0,0,0,.6,1.15l5.46-1.09a15.47,15.47,0,0,0,1.51,1.52,16.22,16.22,0,0,0,2.64,1.86,15.49,15.49,0,0,0,17.1-1.31l.36-.29.49-.42.06-.06,1.33.34,2.8.72a.67.67,0,0,0,.66-1.11l-2.44-2.68.05-.07c.23-.34.44-.69.64-1.05a15.46,15.46,0,0,0-17.95-22.37l-2.57-3.55a.68.68,0,0,0-1.23.43l.23,4.7c-.42.25-.82.53-1.22.82a15.55,15.55,0,0,0-6.19,11.37l-6.17,2.52A.68.68,0,0,0,277.24,289.23Z" style="fill:#407BFF"></path><g style="opacity:0.5"><path d="M277.24,289.23l6.55,1.27a14.88,14.88,0,0,0,.86,2.37l-3.7,3.64a.68.68,0,0,0,.6,1.15l5.46-1.09a15.47,15.47,0,0,0,1.51,1.52,16.22,16.22,0,0,0,2.64,1.86,15.49,15.49,0,0,0,17.1-1.31l.36-.29.49-.42.06-.06,1.33.34,2.8.72a.67.67,0,0,0,.66-1.11l-2.44-2.68.05-.07c.23-.34.44-.69.64-1.05a15.46,15.46,0,0,0-17.95-22.37l-2.57-3.55a.68.68,0,0,0-1.23.43l.23,4.7c-.42.25-.82.53-1.22.82a15.55,15.55,0,0,0-6.19,11.37l-6.17,2.52A.68.68,0,0,0,277.24,289.23Z" style="fill:#fff"></path></g><g style="opacity:0.5"><path d="M290.27,281.14a10.15,10.15,0,1,0,13.81-3.9A10.14,10.14,0,0,0,290.27,281.14Z" style="fill:#fff"></path></g><g style="opacity:0.2"><path d="M301.41,279.07c1.11-.94,2.91-.36,4.33.82a7,7,0,0,1,2.35,5c.48,4.22-2.74,9.85-7.29,9.2s-3-5,.35-5.59,3.63-4.94.67-7.12C300.5,280.41,300.74,279.63,301.41,279.07Z" style="fill:#407BFF"></path></g><g style="opacity:0.2"><path d="M298,282.13a5.29,5.29,0,0,1,2.33.37c1,.43,2.09,1.28,1.47,2.93-1,2.54-4.53,0-6.22,1.93-2,2.25-5.62.33-4.55-2.13S296.26,282.25,298,282.13Z" style="fill:#407BFF"></path></g><g style="opacity:0.2"><path d="M293.55,289.32a2.87,2.87,0,0,1,3,1.55,2,2,0,0,1-.29,2.32c-1.63,2-4.72-1.7-4.14-3A1.72,1.72,0,0,1,293.55,289.32Z" style="fill:#407BFF"></path></g><g style="opacity:0.2"><path d="M298.38,277.2a2.25,2.25,0,0,1,1.5.7,1.58,1.58,0,0,1-.11,2.32c-1.6,1.89-4.31-1.08-3.65-2.25C296.54,277.2,297.66,277.15,298.38,277.2Z" style="fill:#407BFF"></path></g><g style="opacity:0.2"><path d="M294.19,282.07a1.77,1.77,0,0,1-1.3-.06,1.25,1.25,0,0,1-.63-1.72c.59-1.86,3.47-.52,3.35.53C295.53,281.5,294.73,281.88,294.19,282.07Z" style="fill:#407BFF"></path></g></g><g id="freepik--Arrows--inject-31"><polygon points="224.66 321.42 220.62 288.09 210.03 298.68 99.68 188.32 83.72 188.59 201.92 306.79 191.33 317.39 224.66 321.42" style="fill:#407BFF"></polygon><polygon points="224.66 321.42 220.62 288.09 210.03 298.68 99.68 188.32 83.72 188.59 201.92 306.79 191.33 317.39 224.66 321.42" style="fill:#fff;opacity:0.7000000000000001"></polygon><polygon points="440.09 338.82 436.05 305.49 425.46 316.08 311.86 202.48 263.56 250.78 218.19 205.41 204.71 191.93 204.68 191.96 111.46 98.75 95.25 98.75 209.54 213.04 209.61 213.05 263.56 267 311.86 218.7 417.35 324.19 406.76 334.79 440.09 338.82" style="fill:#407BFF"></polygon><polygon points="440.09 338.82 436.05 305.49 425.46 316.08 311.86 202.48 263.56 250.78 218.19 205.41 204.71 191.93 204.68 191.96 111.46 98.75 95.25 98.75 209.54 213.04 209.61 213.05 263.56 267 311.86 218.7 417.35 324.19 406.76 334.79 440.09 338.82" style="fill:#fff;opacity:0.7000000000000001"></polygon><polygon points="341.38 191.06 345.68 186.76 365.78 206.87 371.49 201.17 373.6 218.61 356.16 216.5 361.53 211.12 341.38 191.06" style="fill:#407BFF"></polygon><polygon points="184.29 230.98 188.59 226.68 208.7 246.79 214.4 241.09 216.51 258.53 199.07 256.42 204.44 251.04 184.29 230.98" style="fill:#407BFF"></polygon><polygon points="349.86 305.49 369.96 325.61 375.66 319.9 377.77 337.34 360.33 335.23 365.71 329.86 345.56 309.79 349.86 305.49" style="fill:#407BFF"></polygon></g><g id="freepik--Chart--inject-31"><rect x="220.72" y="105.74" width="111.73" height="68.44" rx="3.52" style="fill:#407BFF"></rect><rect x="220.72" y="105.74" width="111.73" height="68.44" rx="3.52" style="fill:#fff;opacity:0.7000000000000001"></rect><rect x="237.33" y="123.44" width="9.66" height="39.42" style="fill:#407BFF"></rect><rect x="255.41" y="129.56" width="9.66" height="33.31" style="fill:#407BFF"></rect><rect x="255.41" y="129.56" width="9.66" height="33.31" style="fill:#407BFF"></rect><rect x="255.41" y="129.56" width="9.66" height="33.31" style="fill:#fff;opacity:0.30000000000000004"></rect><rect x="273.5" y="135.68" width="9.66" height="27.19" style="fill:#407BFF"></rect><rect x="291.58" y="141.8" width="9.66" height="21.07" style="fill:#407BFF"></rect><rect x="291.58" y="141.8" width="9.66" height="21.07" style="fill:#fff;opacity:0.30000000000000004"></rect><rect x="309.67" y="147.92" width="9.66" height="14.95" style="fill:#407BFF"></rect><polygon points="325.03 163.36 230.79 163.36 230.79 117.07 231.79 117.07 231.79 162.36 325.03 162.36 325.03 163.36" style="fill:#263238"></polygon><polygon points="312.81 139.79 314.32 137.97 302.93 128.57 296.73 136.1 283.52 125.22 278.59 131.19 265.48 120.38 259.77 127.29 244.78 115.89 244.65 114.52 259.6 125.91 265.34 118.95 278.46 129.77 283.39 123.79 296.59 134.69 302.79 127.15 314.97 137.18 316.29 135.58 317.87 140.42 312.81 139.79" style="fill:#407BFF"></polygon></g><g id="freepik--speech-bubble--inject-31"><circle cx="97.43" cy="134.56" r="17.17" transform="translate(-56.1 198.02) rotate(-76.55)" style="fill:#407BFF"></circle><g style="opacity:0.7000000000000001"><circle cx="97.43" cy="134.56" r="17.17" transform="translate(-56.1 198.02) rotate(-76.55)" style="fill:#fff"></circle></g><path d="M94.35,141.18a3.1,3.1,0,0,1,6.14,0c0,1.47-1.18,2.62-3.08,2.62S94.35,142.65,94.35,141.18Zm5.35-4.34H95.12l-.63-11.43h5.84Z" style="fill:#407BFF"></path><path d="M97.43,152.09A17.53,17.53,0,1,1,115,134.56,17.55,17.55,0,0,1,97.43,152.09Zm0-34.35a16.82,16.82,0,1,0,16.82,16.82A16.84,16.84,0,0,0,97.43,117.74Z" style="fill:#407BFF"></path><path d="M110.09,146.22l6,1.91a.36.36,0,0,0,.42-.52l-3.38-5.91A17.4,17.4,0,0,1,110.09,146.22Z" style="fill:#407BFF"></path></g><g id="freepik--Character--inject-31"><polygon points="89.22 406.62 85.25 420.94 90.91 423.01 97.46 410.38 89.22 406.62" style="fill:#ff8b7b"></polygon><path d="M89.6,421.19s2.79-3,3.76-2.31.23,5,.23,5,5.29,3.57,6.89,4.12,2.67,1.85,2,5.09l-19.91-5.53s2.13-7.15,2.5-8.37,1.71.8,1.71.8Z" style="fill:#263238"></path><path d="M146.93,263.29c-1.11,4.43-2.17,15.18-3.46,27.7-.89,8.59-1.88,18-3.07,26.79-1.5,11.24-3.32,21.43-5.63,27.47-8.12,21.29-38,68.3-38,68.3L87.4,411s18.12-51.2,20.12-56.95,10.25-27.5,10.19-50.25S119,260,119,260Z" style="fill:#263238"></path><path d="M143.47,291c-.89,8.59-1.88,18-3.07,26.79-2.69-16.84-3.56-41.87-3.56-41.87Z" style="opacity:0.2"></path><polygon points="86.5 411.06 97.47 414.11 99.25 410.83 87.22 407.33 86.5 411.06" style="fill:#407BFF"></polygon><polygon points="145.33 411.59 145.33 426.46 151.34 426.93 154.28 413.01 145.33 411.59" style="fill:#ff8b7b"></polygon><path d="M149.59,425.53s1.89-3.62,3-3.23,1.57,4.78,1.57,4.78,6.06,2,7.75,2.13,3.06,1.07,3.27,4.37H144.51s.14-7.46.18-8.74,1.86.32,1.86.32Z" style="fill:#263238"></path><path d="M138.18,261.75c-2.33,1.54-1,11.68-.63,16.05.68,8.34,5.92,20.73,6.64,31.56.84,12.54,1.44,25.1,1.14,33.81-.77,22.38-.6,73.08-.6,73.08h9.71s11.4-50.4,13.53-73.08c1.78-18.8.3-72.93,0-84.64Z" style="fill:#263238"></path><polygon points="143.89 416.6 155.28 416.6 156.12 412.96 143.59 412.81 143.89 416.6" style="fill:#407BFF"></polygon><path d="M144.53,176.68l-7.77,11.64a99.41,99.41,0,0,1-11.14-8.23,70.15,70.15,0,0,1-5.26-4.91,38.5,38.5,0,0,1-2.6-2.94,20.49,20.49,0,0,1-2.64-4.2l-.33-.77,0-.1c0-.13-.11-.32-.16-.49a6.27,6.27,0,0,1-.24-1,8.09,8.09,0,0,1-.08-1,8.22,8.22,0,0,1,0-.92,7.4,7.4,0,0,1,.34-1.45,6,6,0,0,1,.22-.59c.08-.17.14-.3.22-.45l.23-.42.21-.33a5,5,0,0,1,.41-.57,9.39,9.39,0,0,1,1.34-1.38c.4-.34.75-.6,1.09-.84a27.32,27.32,0,0,1,3.6-2.06,64.59,64.59,0,0,1,6.59-2.67,100.68,100.68,0,0,1,13.13-3.65l2.5,6.46c-3.7,2.3-7.51,4.51-11.13,6.73-1.32.82-2.63,1.64-3.85,2.46l.53.48c1.43,1.26,3,2.52,4.67,3.78C137.68,171.74,141.22,174.26,144.53,176.68Z" style="fill:#407BFF"></path><path d="M170.39,155a23.56,23.56,0,0,0,4.19,4.87,3.78,3.78,0,0,1-3,1.2Z" style="fill:#ff5652"></path><path d="M166.79,150.8a.4.4,0,0,1-.26-.11.39.39,0,0,1,0-.54,3.85,3.85,0,0,1,3.27-1.28.4.4,0,0,1,.32.45.39.39,0,0,1-.45.31h0a3,3,0,0,0-2.57,1A.41.41,0,0,1,166.79,150.8Z" style="fill:#263238"></path><path d="M152.87,160.34c-1.28,5.92-4.51,16.38-9.9,18.38,0,0-.89,6.18,9.26,10.54,11.15,4.8,7.71-3.24,7.71-3.24-5.47-4.08-3.37-8.52-.48-12.31Z" style="fill:#ff8b7b"></path><path d="M144.53,173.54s3.85-2.92,5.41-2.79,8.39,4.56,8.39,4.56l.06,2.16Z" style="fill:#407BFF"></path><path d="M148.19,156.9c2.1,7.78,2.93,12.44,7.73,15.67,7.24,4.86,16.23-.74,16.5-9,.24-7.43-3.23-18.91-11.58-20.46A11,11,0,0,0,148.19,156.9Z" style="fill:#ff8b7b"></path><path d="M168.85,145.14c-3.16,6.59.23,8.07-.46,10.76s-3.87-2.42-5,4.1-9.14,9.64-9.14,9.64a5.46,5.46,0,0,0-4.24-.81c-20.35-15.54-5.44-22.22-5.44-22.22s.06-3.44,4.58-5.49c5.12-2.32,5,.14,10.25-1.57s10.35-5.38,12.4-.86C172.9,141.19,168.85,145.14,168.85,145.14Z" style="fill:#263238"></path><path d="M161.44,157.21a9.06,9.06,0,0,0,3.28,4.84c2.11,1.57,3.69,0,3.54-2.37-.14-2.15-1.41-5.57-3.74-6.2S160.83,154.87,161.44,157.21Z" style="fill:#ff8b7b"></path><path d="M170.39,263.38c-21.22,18.36-54.62,0-54.62,0,4.07-50.1,6.28-76,12.92-85.12,2.8-3.86,7.27-5.7,13-5.08,19.26,2.1,25.81,9.24,27.47,17.39a25,25,0,0,1,.44,3.77c.27,6.53-1.74,13.31-2.27,18.39C166.09,224.15,170.39,263.38,170.39,263.38Z" style="fill:#407BFF"></path><path d="M169.56,194.34c-3.59-.88-7.39-2.23-7.39-2.23l7-1.54A25,25,0,0,1,169.56,194.34Z" style="opacity:0.2"></path><path d="M202.22,171.3a8.64,8.64,0,0,1-.19,2.2,9.63,9.63,0,0,1-1.32,3.07,14.89,14.89,0,0,1-2.86,3.18,25.81,25.81,0,0,1-2.62,2,40.61,40.61,0,0,1-5,2.83,75.07,75.07,0,0,1-10,4,82.22,82.22,0,0,1-10.33,2.63c-1.77.34-3.58.58-5.45.76a34.4,34.4,0,0,1-6.05.09l.86-14c1.07,0,2.44-.06,3.83-.19s2.87-.38,4.35-.62c2.95-.5,6-1.14,8.93-1.9a86.42,86.42,0,0,0,8.65-2.67c1.36-.51,2.67-1.08,3.8-1.64l.57-.3c-.42-.47-.9-1-1.39-1.45a91.61,91.61,0,0,0-7-6.19c-5-4-10.25-8-15.5-11.8l3.53-6a195.8,195.8,0,0,1,17.67,9.8,93.39,93.39,0,0,1,8.56,6,32,32,0,0,1,4.32,4.12,14.75,14.75,0,0,1,1.14,1.56,10.07,10.07,0,0,1,1.15,2.41,8.65,8.65,0,0,1,.23.91A10.48,10.48,0,0,1,202.22,171.3Z" style="fill:#407BFF"></path><path d="M168.85,145.62a17.43,17.43,0,0,0-3.56-4,10.2,10.2,0,0,0-6.08-1.56c-2.6,0-3.18,3.71-1.89,4.44s2,2.64,2.79,3.46,4.52,3.77,5.74,3.23S168.85,145.62,168.85,145.62Z" style="fill:#ff8b7b"></path><path d="M144.71,145.7a15.34,15.34,0,0,1-.7,4.92c-.74,2.25-3.34,4.39-4.52,4.62s-1.11-2.73.25-5.94C141.46,145.22,144.71,145.7,144.71,145.7Z" style="fill:#ff8b7b"></path><path d="M166.08,150.82s-3.22.73-5.17,0-3.37-1.37-2.09-1.85a14.53,14.53,0,0,1,4.3-.28Z" style="fill:#ff8b7b"></path></g></svg>
