<svg width="79" height="48" viewBox="0 0 79 48" fill="none" xmlns="http://www.w3.org/2000/svg">
<g clip-path="url(#clip0_3599_25825)">
<path d="M56.0435 24.2048C56.335 20.6875 57.7375 17.368 59.1204 14.1183C60.2362 11.4945 61.4855 8.71182 63.9044 7.1875C62.0654 12.4837 60.2199 17.801 59.1302 23.2983C58.7913 25.0075 58.5258 26.7329 58.1528 28.434" fill="#EFDCD5"/>
<path d="M56.0435 24.2048C56.335 20.6875 57.7375 17.368 59.1204 14.1183C60.2362 11.4945 61.4855 8.71182 63.9044 7.1875C62.0654 12.4837 60.2199 17.801 59.1302 23.2983C58.7913 25.0075 58.5258 26.7329 58.1528 28.434" stroke="#141821" stroke-miterlimit="10"/>
<path d="M64.6453 16.3014C67.2189 10.7246 69.659 3.42894 67.9894 2.28732C67.8344 2.17251 67.6507 2.10238 67.4584 2.08462C65.7187 1.97272 64.8522 3.32516 64.2837 4.76678C63.4106 6.97868 62.751 9.28137 62.0603 11.5533C61.7476 12.576 61.4359 13.5992 61.1253 14.623C60.6937 16.0435 60.7816 16.1311 60.3663 17.6943C59.8108 19.7798 59.6349 20.0052 59.5519 20.9376C59.5291 21.1922 59.3189 23.576 59.9216 23.7771C60.9755 24.1354 64.0101 17.6765 64.6453 16.3014Z" fill="#EFDCD5" stroke="#141821" stroke-miterlimit="10"/>
<path d="M63.103 20.43C63.3944 17.8662 63.9105 15.3328 64.6456 12.8586C64.8801 12.0851 65.0577 11.5937 65.3378 10.5381C66.1669 7.40996 65.8933 6.92672 66.5122 4.98889C67.0481 3.30889 67.6915 1.29159 69.4947 0.435369C70.1332 0.132126 71.4347 -0.273284 71.938 0.258608C72.5798 0.949419 71.2506 2.55158 70.2733 6.66401C70.1104 7.35969 69.9166 8.27753 69.8579 8.55969C69.4865 10.3435 69.2569 11.7121 69.195 12.0835C68.9653 13.4667 68.6786 15.4467 68.4522 17.931" fill="#EFDCD5"/>
<path d="M63.103 20.43C63.3944 17.8662 63.9105 15.3328 64.6456 12.8586C64.8801 12.0851 65.0577 11.5937 65.3378 10.5381C66.1669 7.40996 65.8933 6.92672 66.5122 4.98889C67.0481 3.30889 67.6915 1.29159 69.4947 0.435369C70.1332 0.132126 71.4347 -0.273284 71.938 0.258608C72.5798 0.949419 71.2506 2.55158 70.2733 6.66401C70.1104 7.35969 69.9166 8.27753 69.8579 8.55969C69.4865 10.3435 69.2569 11.7121 69.195 12.0835C68.9653 13.4667 68.6786 15.4467 68.4522 17.931" stroke="#141821" stroke-miterlimit="10"/>
<path d="M59.7636 27.3688C60.4966 26.2337 61.2409 25.0807 62.2443 24.1726C63.1158 23.3829 64.1599 22.7975 65.0134 21.9915C65.7106 21.3429 66.3035 20.7039 67.4714 19.4164C69.0139 17.7153 68.6002 18.0202 69.2208 17.4169C70.1655 16.4958 70.8268 16.0775 71.0125 15.1726C71.0903 14.8339 71.0671 14.48 70.9457 14.1542C70.633 13.3742 69.6426 13.1196 68.7956 13.1926C67.0527 13.3418 65.5281 14.4056 64.2348 15.5796C62.9415 16.7537 61.7736 18.0899 60.2799 18.9964C59.0436 19.7472 57.6395 20.1704 56.3039 20.7283C53.5934 21.8634 51.1566 23.5385 48.7443 25.2088C46.6593 26.6504 44.519 28.1504 43.1719 30.291C42.4732 31.4018 42.0154 32.6456 41.6262 33.8975C41.2049 35.2504 40.9227 36.6424 40.784 38.052C39.8686 47.3391 40.9893 59.0261 40.9893 59.0261C40.9893 72.0202 40.7449 77.9991 43.7583 81.5456C46.7717 85.092 56.4325 84.8715 59.3335 80.6293C64.0198 73.7812 51.1892 56.1169 51.427 43.2834C51.4612 41.4039 51.7528 38.4477 53.67 35.9602C55.4943 33.5877 57.0352 34.0061 63.6517 29.5045C64.9417 28.6272 65.9451 27.8829 66.7465 26.5742C67.8248 24.7904 67.2221 24.0964 68.3754 21.9315C68.9797 20.8061 69.1768 20.9293 71.2145 18.111C72.0289 16.9888 72.4704 16.3726 72.9411 15.6169C74.6319 12.9088 74.2898 12.1969 75.7102 9.60071C77.339 6.59908 78.95 5.44287 78.4564 4.63205C78.0557 3.97205 76.6516 4.17151 76.4904 4.19421C75.316 4.35638 74.2588 5.09908 71.998 8.22556C70.6802 10.0466 69.6736 11.7639 68.8087 13.1991" fill="#EFDCD5"/>
<path d="M59.7636 27.3688C60.4966 26.2337 61.2409 25.0807 62.2443 24.1726C63.1158 23.3829 64.1599 22.7975 65.0134 21.9915C65.7106 21.3429 66.3035 20.7039 67.4714 19.4164C69.0139 17.7153 68.6002 18.0202 69.2208 17.4169C70.1655 16.4958 70.8268 16.0775 71.0125 15.1726C71.0903 14.8339 71.0671 14.48 70.9457 14.1542C70.633 13.3742 69.6426 13.1196 68.7956 13.1926C67.0527 13.3418 65.5281 14.4056 64.2348 15.5796C62.9415 16.7537 61.7736 18.0899 60.2799 18.9964C59.0436 19.7472 57.6395 20.1704 56.3039 20.7283C53.5934 21.8634 51.1566 23.5385 48.7443 25.2088C46.6593 26.6504 44.519 28.1504 43.1719 30.291C42.4732 31.4018 42.0154 32.6456 41.6262 33.8975C41.2049 35.2504 40.9227 36.6424 40.784 38.052C39.8686 47.3391 40.9893 59.0261 40.9893 59.0261C40.9893 72.0202 40.7449 77.9991 43.7583 81.5456C46.7717 85.092 56.4325 84.8715 59.3335 80.6293C64.0198 73.7812 51.1892 56.1169 51.427 43.2834C51.4612 41.4039 51.7528 38.4477 53.67 35.9602C55.4943 33.5877 57.0352 34.0061 63.6517 29.5045C64.9417 28.6272 65.9451 27.8829 66.7465 26.5742C67.8248 24.7904 67.2221 24.0964 68.3754 21.9315C68.9797 20.8061 69.1768 20.9294 71.2145 18.111C72.0289 16.9888 72.4704 16.3726 72.9411 15.6169C74.6319 12.9088 74.2898 12.1969 75.7102 9.60071C77.339 6.59908 78.95 5.44287 78.4564 4.63205C78.0557 3.97205 76.6516 4.17151 76.4904 4.19421C75.316 4.35638 74.2588 5.09908 71.998 8.22556C70.6802 10.0466 69.6736 11.7639 68.8087 13.1991" stroke="#141821" stroke-miterlimit="10"/>
<path d="M70.7469 13.9474L70.7458 13.9463C70.2382 13.4409 69.4152 13.4409 68.9075 13.9463L68.0886 14.7616C67.581 15.2669 67.581 16.0863 68.0886 16.5916L68.0898 16.5928C68.5974 17.0981 69.4204 17.0981 69.928 16.5928L70.7469 15.7775C71.2546 15.2721 71.2546 14.4528 70.7469 13.9474Z" fill="#181818" stroke="#181818" stroke-width="1.5" stroke-miterlimit="10"/>
<path d="M76.7039 6.43833C76.5571 6.65518 76.6144 6.94927 76.8318 7.09518C77.0493 7.24109 77.3446 7.18358 77.4914 6.96672L78.7332 5.13255C78.88 4.91569 78.8227 4.62161 78.6053 4.4757C78.3878 4.32979 78.0925 4.3873 77.9457 4.60415L76.7039 6.43833Z" fill="#181818" stroke="#181818" stroke-width="1.5" stroke-miterlimit="10"/>
<path d="M22.7312 25.111C22.438 21.5921 21.0372 18.2743 19.6543 15.0246C18.5369 12.4008 17.2875 9.61645 14.8687 8.09375C16.7076 13.39 18.5531 18.7056 19.6429 24.2046C19.9817 25.9138 20.2472 27.6375 20.6202 29.3386" fill="#EFDCD5"/>
<path d="M22.7312 25.111C22.438 21.5921 21.0372 18.2743 19.6543 15.0246C18.5369 12.4008 17.2875 9.61645 14.8687 8.09375C16.7076 13.39 18.5531 18.7056 19.6429 24.2046C19.9817 25.9138 20.2472 27.6375 20.6202 29.3386" stroke="#141821" stroke-miterlimit="10"/>
<path d="M14.1277 17.1998C11.5557 11.6231 9.11402 4.32737 10.7852 3.18737C10.94 3.07191 11.1237 3.0012 11.3162 2.98305C13.0542 2.87115 13.9224 4.22522 14.4893 5.66522C15.3623 7.87711 16.022 10.1798 16.7143 12.4517L17.6476 15.5214C18.0809 16.942 17.9913 17.0312 18.4067 18.5928C18.9621 20.6798 19.1381 20.9052 19.2211 21.836C19.2439 22.0906 19.4557 24.4744 18.8514 24.6771C17.7975 25.0339 14.7646 18.5798 14.1277 17.1998Z" fill="#EFDCD5" stroke="#141821" stroke-miterlimit="10"/>
<path d="M15.6702 21.3367C15.3797 18.7728 14.8635 16.2393 14.1277 13.7653C13.8931 12.9902 13.7172 12.5005 13.437 11.4448C12.6063 8.31505 12.8816 7.83343 12.2626 5.89397C11.7251 4.21397 11.0817 2.1983 9.27852 1.34046C8.64164 1.03722 7.33854 0.63343 6.83522 1.16532C6.18368 1.85451 7.5226 3.45667 8.49992 7.57073C8.66281 8.26478 8.85502 9.18424 8.91366 9.46478C9.28504 11.2486 9.51471 12.6172 9.57661 12.9902C9.80628 14.3734 10.093 16.3518 10.321 18.828" fill="#EFDCD5"/>
<path d="M15.6702 21.3367C15.3797 18.7728 14.8635 16.2393 14.1277 13.7653C13.8931 12.9902 13.7172 12.5005 13.437 11.4448C12.6063 8.31505 12.8816 7.83343 12.2626 5.89397C11.7251 4.21397 11.0817 2.1983 9.27852 1.34046C8.64164 1.03722 7.33854 0.63343 6.83522 1.16532C6.18368 1.85451 7.5226 3.45667 8.49992 7.57073C8.66281 8.26478 8.85502 9.18424 8.91366 9.46478C9.28504 11.2486 9.51471 12.6172 9.57661 12.9902C9.80628 14.3734 10.093 16.3518 10.321 18.828" stroke="#141821" stroke-miterlimit="10"/>
<path d="M19.0095 28.2748C18.2765 27.1397 17.5321 25.9867 16.5287 25.077C15.6573 24.2872 14.6148 23.7018 13.7596 22.8959C13.0625 22.2472 12.4696 21.6083 11.3017 20.3207C9.76076 18.6213 10.1729 18.9261 9.5539 18.3213C8.60915 17.4018 7.94621 16.9834 7.76214 16.077C7.68549 15.7381 7.70925 15.3843 7.83055 15.0586C8.1433 14.2802 9.13365 14.0256 9.97903 14.097C11.7219 14.2461 13.2465 15.3099 14.5399 16.4856C15.8332 17.6613 17.0011 18.9942 18.4931 19.9007C19.7294 20.6532 21.1335 21.0764 22.4708 21.6326C25.1812 22.7678 27.6164 24.4445 30.0304 26.1132C32.1137 27.5548 34.2557 29.0564 35.6011 31.197C36.2999 32.3078 36.7576 33.5515 37.1469 34.8034C37.5693 36.1561 37.8514 37.5482 37.989 38.958C38.9077 48.2451 37.7887 59.924 37.7887 59.924C37.7887 77.1034 38.2154 79.9575 35.0196 82.4451C31.1575 85.4564 23.1908 85.0396 20.482 81.2191C15.6768 74.4294 27.6017 57.151 27.3525 44.1813C27.2597 39.3391 25.4744 37.3348 25.1079 36.8597C23.2836 34.4872 21.7443 34.9137 15.1262 30.404C13.8362 29.5251 12.8328 28.7824 12.0412 27.4737C10.9612 25.6899 11.5655 24.9959 10.4025 22.8294C9.79985 21.704 9.60113 21.8288 7.56342 19.0088C6.74898 17.8883 6.30757 17.2705 5.83682 16.5164C4.14769 13.8067 4.48812 13.0964 3.06775 10.5002C1.43888 7.49858 -0.170432 6.34236 0.321485 5.53155C0.722186 4.87155 2.12789 5.06939 2.28915 5.09209C3.46193 5.25426 4.51907 5.99696 6.77993 9.12344C7.93527 10.7208 9.00004 12.3813 9.96926 14.097" fill="#EFDCD5"/>
<path d="M19.0095 28.2748C18.2765 27.1397 17.5321 25.9867 16.5287 25.077C15.6573 24.2872 14.6148 23.7018 13.7596 22.8959C13.0625 22.2472 12.4696 21.6083 11.3017 20.3207C9.76076 18.6213 10.1729 18.9261 9.5539 18.3213C8.60915 17.4018 7.94621 16.9834 7.76214 16.077C7.68549 15.7381 7.70925 15.3843 7.83055 15.0586C8.1433 14.2802 9.13365 14.0256 9.97903 14.097C11.7219 14.2461 13.2465 15.3099 14.5399 16.4856C15.8332 17.6613 17.0011 18.9942 18.4931 19.9007C19.7294 20.6532 21.1335 21.0764 22.4708 21.6326C25.1812 22.7678 27.6164 24.4445 30.0304 26.1132C32.1137 27.5548 34.2557 29.0564 35.6011 31.197C36.2999 32.3078 36.7576 33.5515 37.1469 34.8034C37.5693 36.1561 37.8514 37.5482 37.989 38.958C38.9077 48.2451 37.7887 59.924 37.7887 59.924C37.7887 77.1034 38.2154 79.9575 35.0196 82.4451C31.1575 85.4564 23.1908 85.0396 20.482 81.2191C15.6768 74.4294 27.6017 57.151 27.3525 44.1813C27.2597 39.3391 25.4744 37.3348 25.1079 36.8597C23.2836 34.4872 21.7443 34.9137 15.1262 30.404C13.8362 29.5251 12.8328 28.7824 12.0412 27.4737C10.9612 25.6899 11.5655 24.9959 10.4025 22.8294C9.79985 21.704 9.60113 21.8288 7.56342 19.0088C6.74898 17.8883 6.30757 17.2705 5.83682 16.5164C4.14769 13.8067 4.48812 13.0964 3.06775 10.5002C1.43888 7.49858 -0.170432 6.34236 0.321485 5.53155C0.722186 4.87155 2.12789 5.06939 2.28915 5.09209C3.46193 5.25426 4.51907 5.99696 6.77993 9.12344C7.93527 10.7208 9.00004 12.3813 9.96926 14.097" stroke="#141821" stroke-miterlimit="10"/>
<path d="M10.6842 17.4943L10.6854 17.4932C11.193 16.9878 11.193 16.1685 10.6854 15.6631L9.86646 14.8478C9.35884 14.3425 8.53583 14.3425 8.02821 14.8478L8.02706 14.849C7.51944 15.3543 7.51944 16.1737 8.02706 16.679L8.84597 17.4943C9.35359 17.9997 10.1766 17.9997 10.6842 17.4943Z" fill="#181818" stroke="#181818" stroke-width="1.5" stroke-miterlimit="10"/>
<path d="M1.05454 5.41828C0.907434 5.20122 0.611746 5.14378 0.394093 5.28998C0.17644 5.43617 0.119248 5.73064 0.266351 5.9477L1.51055 7.78357C1.65765 8.00063 1.95334 8.05807 2.17099 7.91188C2.38864 7.76568 2.44583 7.47121 2.29873 7.25415L1.05454 5.41828Z" fill="#181818" stroke="#181818" stroke-width="1.5" stroke-miterlimit="10"/>
</g>
<defs>
<clipPath id="clip0_3599_25825">
<rect width="79" height="48" fill="white"/>
</clipPath>
</defs>
</svg>
