<svg width="251" height="261" viewBox="0 0 251 261" fill="none" xmlns="http://www.w3.org/2000/svg">
<g clip-path="url(#clip0_4201_24961)">
<path d="M0 0H251V261H0V0Z" fill="#2769FF"/>
<path d="M95.853 178.285C95.7572 182.873 95.6724 208.279 115.437 228.842C134.351 248.519 157.893 249.668 162.716 249.796L161.497 186.927C160.336 188.339 147.889 202.966 128.146 201.313C106.137 199.446 96.251 179.127 95.853 178.285Z" fill="#EBD065" stroke="black" stroke-miterlimit="10"/>
<mask id="mask0_4201_24961" style="mask-type:alpha" maskUnits="userSpaceOnUse" x="94" y="173" width="71" height="78">
<path d="M95.3338 175.214C95.2356 179.998 95.1488 206.496 115.399 227.942C134.777 248.464 158.896 249.663 163.838 249.796L162.588 184.227C161.399 185.7 148.647 200.955 128.419 199.231C105.87 197.283 95.7415 176.092 95.3338 175.214Z" fill="#EBD065" stroke="black" stroke-miterlimit="10"/>
</mask>
<g mask="url(#mask0_4201_24961)">
<path d="M165.961 171.529L101.816 171.529L101.816 252.734L165.961 252.734L165.961 171.529Z" stroke="black" stroke-miterlimit="10"/>
<path d="M155.273 252.734L155.273 171.529" stroke="black" stroke-miterlimit="10"/>
<path d="M144.578 252.734L144.578 171.529" stroke="black" stroke-miterlimit="10"/>
<path d="M133.891 252.734L133.891 171.529" stroke="black" stroke-miterlimit="10"/>
<path d="M123.199 252.734L123.199 171.529" stroke="black" stroke-miterlimit="10"/>
<path d="M112.508 252.734L112.508 171.529" stroke="black" stroke-miterlimit="10"/>
</g>
<path d="M162.913 107.231H162.715L162.883 249.796H162.913C200.463 249.796 230.904 217.884 230.904 178.514C230.904 139.144 200.463 107.231 162.913 107.231Z" fill="#EBD065" stroke="black" stroke-miterlimit="10"/>
<mask id="mask1_4201_24961" style="mask-type:alpha" maskUnits="userSpaceOnUse" x="162" y="106" width="70" height="145">
<path d="M162.913 107.231H162.715L162.883 249.796H162.913C200.463 249.796 230.904 217.884 230.904 178.514C230.904 139.144 200.463 107.231 162.913 107.231Z" fill="#EBD065" stroke="black" stroke-miterlimit="10"/>
</mask>
<g mask="url(#mask1_4201_24961)">
<path d="M229.164 174.593H162.75L162.75 251.34H229.164L229.164 174.593Z" stroke="black" stroke-miterlimit="10"/>
<path d="M173.82 174.593L173.82 251.34" stroke="black" stroke-miterlimit="10"/>
<path d="M184.887 174.593L184.887 251.34" stroke="black" stroke-miterlimit="10"/>
<path d="M195.957 174.593L195.957 251.34" stroke="black" stroke-miterlimit="10"/>
<path d="M207.027 174.593L207.027 251.34" stroke="black" stroke-miterlimit="10"/>
<path d="M218.098 174.593L218.098 251.34" stroke="black" stroke-miterlimit="10"/>
</g>
<path d="M188.156 169.307C188.891 170.83 189.938 172.179 191.227 173.268V173.336H163.469H162.719V174.086V202.8V203.55H163.469H164.637H164.999L165.224 203.267C166.587 201.555 168.45 200.309 170.552 199.702C172.655 199.095 174.895 199.157 176.961 199.879C179.027 200.601 180.818 201.948 182.085 203.733C183.352 205.518 184.032 207.652 184.032 209.841C184.032 212.03 183.352 214.165 182.085 215.949C180.818 217.734 179.027 219.081 176.961 219.803C174.895 220.525 172.655 220.587 170.552 219.98C168.45 219.373 166.587 218.127 165.224 216.415L164.999 216.132H164.637H163.469H162.719V216.882V242.275V243.027L163.471 243.025C181.718 242.969 199.199 235.682 212.082 222.761C224.966 209.839 232.201 192.336 232.202 174.089L232.202 173.339H231.452H206.809V173.268C208.27 172.03 209.416 170.461 210.151 168.69C210.933 166.805 211.223 164.753 210.996 162.726C210.769 160.699 210.031 158.762 208.851 157.098C207.672 155.434 206.089 154.096 204.252 153.21C202.414 152.323 200.382 151.918 198.345 152.031C196.308 152.145 194.333 152.773 192.605 153.857C190.877 154.942 189.453 156.447 188.465 158.232C187.477 160.017 186.959 162.023 186.958 164.063L186.958 164.24L186.963 164.25C186.987 166.002 187.394 167.728 188.156 169.307Z" fill="#FEE066" stroke="black" stroke-width="1.5"/>
<path d="M153.249 150.194C155.063 150.196 156.854 149.788 158.487 149C160.011 148.266 161.361 147.218 162.451 145.928H162.518L162.518 172.937V173.687V173.893H163.268V174.437H191.979H192.729L192.729 173.687V172.515V172.153L192.446 171.928C190.734 170.564 189.488 168.702 188.881 166.599C188.274 164.497 188.336 162.257 189.058 160.191C189.78 158.124 191.127 156.334 192.912 155.067C194.697 153.8 196.831 153.12 199.02 153.12C201.209 153.12 203.343 153.8 205.128 155.067C206.913 156.334 208.26 158.124 208.982 160.191C209.704 162.257 209.766 164.497 209.159 166.599C208.552 168.702 207.306 170.564 205.594 171.928L205.311 172.153V172.515V173.683L205.311 174.433H206.061H231.45H232.202L232.2 173.681C232.086 135.703 201.269 104.95 163.264 104.95H162.514V105.7V130.343H162.45C161.213 128.882 159.644 127.736 157.872 127.001C155.988 126.219 153.936 125.928 151.909 126.156C149.881 126.383 147.945 127.121 146.281 128.301C144.616 129.48 143.278 131.063 142.392 132.9C141.506 134.738 141.101 136.77 141.214 138.807C141.327 140.844 141.955 142.819 143.04 144.547C144.124 146.274 145.629 147.699 147.414 148.687C149.199 149.674 151.206 150.193 153.246 150.194H153.246H153.249ZM153.249 150.194L153.25 149.444M153.249 150.194H153.25V149.444M153.25 149.444C154.951 149.446 156.63 149.064 158.162 148.325C159.694 147.586 161.039 146.51 162.096 145.178M153.25 149.444L162.096 145.178M162.096 145.178L162.518 145.514V145.178H162.096ZM163.268 145.928L163.268 172.937L163.268 145.928Z" fill="#FEE066" stroke="black" stroke-width="1.5"/>
<path d="M163.581 202.064C164.671 200.774 166.021 199.727 167.544 198.992C169.178 198.204 170.969 197.796 172.782 197.798C172.782 197.798 172.783 197.798 172.783 197.798M163.581 202.064L172.783 197.798M163.581 202.064H163.514V174.306V173.556H162.764H134.06H133.31V174.306V175.478V175.839L133.593 176.065C135.305 177.428 136.551 179.29 137.158 181.393C137.766 183.496 137.704 185.736 136.981 187.802C136.259 189.868 134.913 191.659 133.128 192.926C131.343 194.192 129.208 194.873 127.019 194.873C124.831 194.873 122.696 194.192 120.911 192.926C119.126 191.659 117.78 189.868 117.057 187.802C116.335 185.736 116.273 183.496 116.88 181.393C117.487 179.29 118.733 177.428 120.446 176.065L120.728 175.839V175.478V174.309V173.559H119.978H94.5859H93.8337L93.8359 174.312C93.9495 212.285 124.767 243.042 162.775 243.042H163.525V242.292V217.65M172.783 197.798L172.793 197.798H172.794C174.834 197.799 176.84 198.318 178.625 199.306C180.41 200.294 181.915 201.718 183 203.446C184.084 205.174 184.712 207.149 184.825 209.186C184.939 211.222 184.533 213.255 183.647 215.092C182.761 216.93 181.423 218.512 179.759 219.692C178.094 220.872 176.158 221.61 174.131 221.837C172.103 222.064 170.052 221.773 168.167 220.992C166.396 220.257 164.827 219.11 163.589 217.65M172.783 197.798L163.589 217.65M163.589 217.65H163.525M163.589 217.65H163.525" fill="#FEE066" stroke="black" stroke-width="1.5"/>
<path fill-rule="evenodd" clip-rule="evenodd" d="M145.393 128.167C145.146 127.464 144.375 127.094 143.672 127.342C142.968 127.589 142.599 128.36 142.847 129.064L148.873 146.173L141.15 148.893L135.124 131.784C134.876 131.081 134.105 130.711 133.402 130.959C132.699 131.207 132.33 131.978 132.578 132.681L138.604 149.79L121.051 155.972C120.348 156.22 119.978 156.991 120.226 157.695C120.474 158.398 121.245 158.767 121.948 158.52L139.501 152.337L160.98 213.32L143.427 219.502C142.723 219.75 142.354 220.521 142.602 221.224C142.849 221.928 143.62 222.297 144.324 222.049L161.877 215.867L167.54 231.945C167.788 232.648 168.559 233.017 169.262 232.77C169.965 232.522 170.334 231.751 170.087 231.048L164.424 214.97L172.147 212.25L177.81 228.327C178.058 229.031 178.828 229.4 179.531 229.153C180.235 228.905 180.604 228.134 180.356 227.431L174.693 211.353L189.467 206.149C198.942 202.812 203.917 192.426 200.58 182.951C197.898 175.334 190.66 170.625 183.003 170.804C187.75 166.006 189.63 158.744 187.237 151.95C183.898 142.473 173.509 137.496 164.031 140.834L151.419 145.276L145.393 128.167ZM182.587 170.819C187.418 166.099 189.362 158.834 186.97 152.044C186.617 151.041 186.184 150.09 185.68 149.194C186.183 150.089 186.616 151.04 186.969 152.043C189.361 158.833 187.417 166.099 182.584 170.819C182.585 170.819 182.586 170.819 182.587 170.819ZM175.757 172.41C183.48 169.372 187.469 160.738 184.69 152.848C181.847 144.777 172.999 140.538 164.928 143.381L152.317 147.823L162.608 177.041L175.757 172.41ZM162.341 177.135L152.05 147.917L152.049 147.917L162.34 177.136L162.341 177.135ZM160.062 177.938L149.77 148.72L142.047 151.44L152.338 180.658L160.062 177.938ZM152.072 180.752L141.781 151.534L141.779 151.535L152.071 180.753L152.072 180.752ZM176.699 174.941C176.512 175.014 176.323 175.085 176.132 175.152L163.511 179.607L173.796 208.806L188.57 203.602C196.638 200.76 200.875 191.916 198.033 183.848C195.191 175.78 186.347 171.543 178.279 174.385L176.699 174.941ZM173.89 209.072L188.664 203.868C196.879 200.975 201.193 191.969 198.3 183.754C195.406 175.539 186.4 171.225 178.185 174.118L151.923 183.368C151.367 183.564 150.758 183.272 150.562 182.716C150.366 182.16 150.658 181.55 151.214 181.354L177.476 172.104C186.803 168.819 197.028 173.717 200.314 183.045C203.599 192.372 198.701 202.597 189.373 205.882L144.23 221.783C144.209 221.79 144.188 221.797 144.167 221.803M161.074 213.586L163.352 212.784L163.259 212.517L160.98 213.32M163.26 212.517L163.354 212.783L163.62 212.689L163.526 212.423L163.26 212.517ZM171.25 209.702L171.344 209.969L173.622 209.166L173.528 208.9L171.25 209.702ZM173.529 208.899L173.623 209.166L173.89 209.072M174.425 211.447L174.426 211.447L180.089 227.524C180.228 227.919 180.122 228.34 179.85 228.622C180.121 228.341 180.227 227.92 180.088 227.526L174.425 211.447ZM164.156 215.064L164.157 215.064L169.82 231.142C169.959 231.535 169.853 231.955 169.583 232.237C169.852 231.955 169.957 231.536 169.819 231.143L164.156 215.064ZM120.587 157.8C120.843 158.223 121.369 158.424 121.854 158.253L139.407 152.071L139.406 152.069L121.853 158.251C121.369 158.422 120.844 158.222 120.587 157.8ZM141.687 151.268L141.685 151.268L141.685 151.266L141.686 151.266L141.687 151.268ZM149.677 148.453L141.953 151.174L141.953 151.172L149.676 148.451L149.677 148.453ZM151.956 147.65L151.955 147.651L151.954 147.649L151.956 147.649L151.956 147.65ZM183.186 149.213C179.276 143.367 171.774 140.67 164.834 143.114L152.223 147.557L152.222 147.555L164.833 143.113C171.773 140.668 179.277 143.366 183.186 149.213ZM151.153 145.37L145.127 128.261C144.931 127.705 144.321 127.412 143.765 127.608C143.598 127.667 143.455 127.764 143.341 127.885C143.454 127.764 143.597 127.668 143.764 127.609C144.32 127.414 144.93 127.706 145.126 128.262L151.152 145.37L151.153 145.37ZM140.883 148.987L140.882 148.987L134.856 131.879C134.66 131.323 134.051 131.031 133.495 131.227C133.328 131.285 133.185 131.382 133.072 131.502C133.185 131.381 133.328 131.284 133.496 131.225C134.052 131.03 134.661 131.322 134.857 131.878L140.883 148.987Z" fill="#181818"/>
<path d="M139.212 183.444C139.215 181.63 138.805 179.839 138.015 178.205C137.278 176.682 136.228 175.331 134.934 174.242V174.175H162.779H163.529V173.425V144.711V143.961H162.779H161.603H161.242L161.017 144.243C159.649 145.956 157.781 147.202 155.671 147.809C153.561 148.417 151.313 148.355 149.24 147.632C147.167 146.91 145.371 145.563 144.1 143.778C142.829 141.993 142.147 139.859 142.147 137.671C142.147 135.482 142.829 133.348 144.1 131.563C145.371 129.778 147.167 128.431 149.24 127.709C151.313 126.986 153.561 126.925 155.671 127.532C157.781 128.139 159.649 129.385 161.017 131.098L161.242 131.38H161.603H162.775H163.525V130.63V105.241V104.489L162.773 104.491C124.687 104.605 93.8359 135.42 93.8359 173.425V174.175H94.5859H119.305V174.239C117.841 175.476 116.691 177.045 115.954 178.817C115.17 180.701 114.878 182.753 115.106 184.781C115.334 186.809 116.074 188.746 117.257 190.41C118.44 192.074 120.028 193.412 121.87 194.298C123.713 195.184 125.751 195.589 127.793 195.476C129.835 195.362 131.815 194.734 133.548 193.65C135.281 192.566 136.71 191.061 137.7 189.276C138.691 187.491 139.211 185.485 139.212 183.444ZM139.212 183.444L138.468 183.444L139.212 183.444C139.212 183.444 139.212 183.444 139.212 183.444Z" fill="#2769FF" stroke="#2769FF" stroke-width="1.5"/>
<path d="M62.3848 55.0106C67.2625 40.9268 68.499 22.1448 63.2726 20.2068C58.0462 18.2688 46.3025 33.383 41.0519 48.2982C35.8907 62.9653 35.3927 81.8991 40.6807 83.6953C46.0279 85.5233 57.2731 69.7709 62.3848 55.0106Z" fill="black"/>
<path d="M71.4403 41.2375C78.7013 43.9213 84.7002 44.4018 89.0875 44.2559L89.0875 44.2559C91.4168 44.1784 93.5556 43.9158 95.5367 43.6279C96.1458 43.5394 96.7374 43.4489 97.3143 43.3607C98.6237 43.1605 99.857 42.9719 101.046 42.8442C104.452 42.4783 107.346 42.6322 110.141 44.4447C111.434 45.2883 112.168 46.1256 114.775 49.8374C120.96 58.6458 125.224 65.6288 126.369 67.7904C129.925 74.5143 131.664 77.8057 132.509 81.1893C133.613 85.607 133.982 90.5566 133.525 94.6237C133.297 96.6579 132.864 98.4482 132.23 99.8341C131.595 101.22 130.784 102.148 129.828 102.561C128.571 103.031 127.195 103.077 125.91 102.691C124.408 102.222 123.125 101.231 122.291 99.8969C121.55 98.4325 121.071 96.8494 120.876 95.2195L120.875 95.2087L120.873 95.1979C120.406 92.3528 120.166 89.4751 120.156 86.592L119.16 86.5337C118.528 91.7563 116.871 95.8679 113.877 100.222C112.586 102.095 111.075 103.828 109.111 104.831C107.154 105.83 104.712 105.893 103.022 104.689C102.2 104.104 101.632 103.136 101.45 102.112C101.268 101.09 101.479 100.071 102.128 99.3478L102.796 98.6045L101.801 98.5157C99.1241 98.2768 96.4879 97.2054 94.8828 95.1544C93.2802 93.1067 93.0796 90.0032 94.6636 88.0923L95.0552 87.6199L94.5134 87.3318C93.0505 86.5538 91.6944 85.6598 90.8668 84.3666L90.4723 84.619L90.8668 84.3665C90.105 83.1764 90.0361 81.986 90.3967 80.8555C90.7636 79.7056 91.5826 78.6017 92.6197 77.6566L91.9468 76.9169C92.0442 76.8284 92.1798 76.8127 92.2741 76.8422C92.303 76.8513 92.3175 76.8611 92.3175 76.8611C92.3174 76.861 92.3056 76.853 92.2818 76.8292C92.1885 76.7358 92.0511 76.5434 91.8776 76.2403C91.5385 75.6481 91.1398 74.7752 90.7452 73.838C90.3526 72.9056 89.9717 71.9284 89.6677 71.1362C89.5906 70.9354 89.5177 70.7444 89.4504 70.5682C89.2587 70.0658 89.1126 69.6831 89.0461 69.5346C87.4939 65.9941 85.4441 62.6127 83.4599 59.3552C83.4598 59.355 83.4597 59.3549 83.4596 59.3547L83.0326 59.6149L71.4403 41.2375Z" fill="#F1C4AF" stroke="black"/>
<path d="M120.243 127.176C120.246 125.07 119.771 122.991 118.853 121.094C117.989 119.307 116.753 117.725 115.23 116.453L115.23 116.186L147.985 116.186L148.735 116.186L148.735 115.436L148.735 81.791L148.735 81.041L147.985 81.041L146.608 81.041L146.247 81.041L146.022 81.3229C144.402 83.3502 142.191 84.8258 139.693 85.5447C137.195 86.2637 134.534 86.1903 132.079 85.335C129.625 84.4798 127.498 82.885 125.994 80.7719C124.489 78.6588 123.681 76.1318 123.681 73.5409C123.681 70.9501 124.489 68.4231 125.994 66.31C127.498 64.1968 129.625 62.6019 132.079 61.7466C134.534 60.8914 137.194 60.8182 139.693 61.5372C142.191 62.2561 144.402 63.7315 146.022 65.7588L146.247 66.0407L146.608 66.0407L147.981 66.0407L148.731 66.0407L148.731 65.2907L148.731 35.542L148.731 34.7898L147.979 34.792C103.424 34.9249 67.332 70.9748 67.332 115.436L67.332 116.186L68.082 116.186L97.1752 116.186L97.1752 116.45C95.4528 117.892 94.1018 119.728 93.2382 121.804C92.3277 123.991 91.9889 126.374 92.2536 128.728C92.5184 131.082 93.3779 133.331 94.7516 135.264C96.1253 137.196 97.9682 138.749 100.108 139.778C102.247 140.806 104.613 141.277 106.984 141.145C109.356 141.014 111.655 140.284 113.667 139.026C115.678 137.767 117.337 136.02 118.488 133.947C119.638 131.875 120.242 129.545 120.243 127.176ZM120.243 127.176L119.499 127.175L120.243 127.176C120.243 127.176 120.243 127.176 120.243 127.176Z" fill="#FEE066" stroke="black" stroke-width="1.5"/>
<path fill-rule="evenodd" clip-rule="evenodd" d="M127.912 63.7493L127.473 62.3906C127.206 61.5628 126.33 61.1129 125.518 61.386C124.705 61.6592 124.264 62.552 124.531 63.3798L125.556 66.5508C125.63 66.4328 125.706 66.3159 125.784 66.2L124.839 63.2762C124.628 62.6216 124.977 61.9158 125.619 61.6998C126.046 61.5564 126.494 61.6651 126.809 61.946C126.494 61.6656 126.046 61.5573 125.62 61.7005C124.978 61.9165 124.628 62.6223 124.84 63.2769L125.784 66.1994C125.848 66.1043 125.914 66.01 125.98 65.9164C126.546 65.1213 127.194 64.3955 127.912 63.7493ZM128.922 84.2303L122.117 86.5185L115.61 66.3798C115.342 65.552 114.467 65.1021 113.655 65.3753C112.842 65.6485 112.4 66.5412 112.668 67.369L119.175 87.5077L98.8933 94.3273C98.0806 94.6005 97.6387 95.4932 97.9062 96.3212C98.1737 97.1491 99.0494 97.5988 99.8621 97.3256L120.144 90.506L128.212 115.476L131.128 115.475L122.774 89.6215L122.778 89.6204L131.131 115.475L131.473 115.475L123.086 89.5168L132.007 86.517L141.362 115.471L141.704 115.471L132.315 86.4135L132.316 86.4133L141.704 115.471L144.623 115.47L135.34 86.74C134.356 86.6304 133.383 86.4108 132.437 86.0819C131.172 85.6413 129.988 85.0151 128.922 84.2303ZM98.2142 96.2176C98.0931 95.8427 98.1559 95.4511 98.3524 95.1442C98.1565 95.4509 98.094 95.842 98.215 96.2164C98.4265 96.8711 99.1189 97.2266 99.7615 97.0105L120.042 90.1914L120.042 90.1922L99.7607 97.0118C99.1181 97.2278 98.4257 96.8723 98.2142 96.2176ZM122.673 89.3077L122.676 89.3066L122.676 89.3057L122.673 89.3068L122.673 89.3077ZM122.984 89.203L131.906 86.2033L131.905 86.2024L122.984 89.2022L122.984 89.203ZM132.214 86.0997L132.214 86.0995L132.214 86.0987L132.213 86.0988L132.214 86.0997ZM121.806 86.6232L121.809 86.6221L115.302 66.4834C115.09 65.8287 114.398 65.4731 113.756 65.6891C113.686 65.7125 113.62 65.7416 113.558 65.7758C113.619 65.7423 113.684 65.7138 113.753 65.6908C114.395 65.4748 115.087 65.8304 115.299 66.4851L121.806 86.6232Z" fill="#181818"/>
<path d="M86.9268 43.626C80.4855 43.1893 76.3456 41.8257 70.6699 40.3379C70.6699 40.3379 64.1905 38.6419 55.5781 37.0202C49.8309 35.9456 44.0327 35.1649 38.206 34.6813C17.5331 32.1984 13.2463 29.7672 7.551 33.7744C-0.230338 39.2512 -0.692593 49.7632 -0.717572 50.3566C-0.951978 58.4515 3.49205 67.3631 10.6125 71.4249C28.3206 81.5233 60.8648 60.6498 68.7393 68.2264C69.2218 68.6901 72.3607 71.3953 76.6518 75.2869C77.9922 76.5032 79.3595 77.7367 81.0033 78.4996C86.2493 80.9298 91.9749 78.1018 97.4105 78.6768C108.778 79.8861 109.438 93.0667 117.874 98.1399C121.176 100.129 125.677 100.52 128.785 98.2559C129.494 97.7849 130.039 97.1039 130.342 96.3084C130.752 94.9652 130.117 93.556 129.486 92.3035L119.037 71.5498C118.153 69.7985 117.244 68.0116 115.81 66.6798C114.377 65.3479 112.474 64.5474 110.634 63.7938C106.531 62.1156 104.499 61.2254 102.786 60.5837C99.5719 59.3741 95.5265 55.5344 92.1636 43.7548C91.008 43.7832 89.1715 43.7875 86.9268 43.626Z" fill="#F1C4AF"/>
<path d="M107.019 61.9885C110.247 62.9729 115.036 64.9472 118.638 69.3536C121.244 72.5432 120.787 74.0097 124.221 81.8103C128.448 91.4035 131.564 94.198 130.038 96.9623C128.511 99.7266 123.863 99.8645 123.385 99.8795C120.313 99.9795 118.124 98.5684 116.588 97.5724C114.074 95.9098 112.02 93.6392 110.618 90.9712C109.177 88.1737 109.285 86.7842 107.306 84.1392C106.641 83.2818 105.879 82.5031 105.037 81.8184C102.214 79.4779 98.6562 78.2091 94.9898 78.2358C91.0215 78.3103 89.109 80.1129 84.562 79.4373C83.2288 79.2351 81.9266 78.8658 80.6858 78.3378" stroke="black" stroke-width="2" stroke-miterlimit="10" stroke-linecap="round"/>
<path d="M127.813 90.9942L128.564 93.3477C128.817 94.1383 128.745 94.9968 128.364 95.7343C127.984 96.4718 127.326 97.0279 126.536 97.2803L123.12 98.3709C121.987 98.7328 120.757 98.6295 119.7 98.0842C118.643 97.5388 117.845 96.5959 117.483 95.4628L117.144 94.401C116.693 92.9863 116.821 91.4501 117.502 90.1303C118.183 88.8105 119.361 87.8153 120.775 87.3635V87.3635C122.19 86.9117 123.726 87.0405 125.046 87.7214C126.366 88.4023 127.361 89.5795 127.813 90.9942V90.9942Z" fill="#DAA07A"/>
<path d="M49.314 69.1827C47.7035 65.0502 46.6585 60.719 46.2075 56.3067C45.5256 49.4089 46.2886 42.4447 48.4477 35.8581C44.342 40.8281 41.3584 46.6264 39.7008 52.8562C38.0432 59.086 37.7507 65.6005 38.8435 71.9538C40.6835 71.4566 42.5343 70.9642 44.3958 70.4767C46.0391 70.0328 47.6784 69.6014 49.314 69.1827Z" fill="#D1B299"/>
<path d="M40.6816 83.691L-39.1078 89.0506C-43.2004 84.5083 -50.8817 74.568 -52.0027 60.6276C-53.6683 39.7173 -39.8491 18.5195 -17.0629 7.54376L63.6656 19.9093C53.8238 26.9598 46.3552 36.8329 42.2487 48.2218C38.1421 59.6107 37.5912 71.9782 40.6689 83.6871L40.6816 83.691Z" fill="white"/>
<path d="M36.2763 16.0568C32.435 18.4226 19.7077 26.9239 13.8417 43.8719C6.77888 64.2629 14.9375 81.6342 16.5735 84.9501" fill="white"/>
<path d="M36.2763 16.0568C32.435 18.4226 19.7077 26.9239 13.8417 43.8719C6.77888 64.2629 14.9375 81.6342 16.5735 84.9501" stroke="#7DDB9D" stroke-width="2" stroke-linecap="round" stroke-linejoin="round"/>
<path d="M38.399 16.4701C34.6544 18.6544 21.5765 26.9065 15.5216 43.9024C8.23148 64.3617 16.702 81.8833 18.2532 84.9806" fill="white"/>
<path d="M38.399 16.4701C34.6544 18.6544 21.5765 26.9065 15.5216 43.9024C8.23148 64.3617 16.702 81.8833 18.2532 84.9806" stroke="#7DDB9D" stroke-width="2" stroke-linecap="round" stroke-linejoin="round"/>
<path d="M12.9651 12.4758C8.30822 16.1619 -2.28123 25.5812 -7.66923 41.684C-14.9368 63.3935 -7.63054 81.95 -5.58543 86.7074" fill="white"/>
<path d="M12.9651 12.4758C8.30822 16.1619 -2.28123 25.5812 -7.66923 41.684C-14.9368 63.3935 -7.63054 81.95 -5.58543 86.7074" stroke="#7DDB9D" stroke-width="2" stroke-linecap="round" stroke-linejoin="round"/>
<path d="M15.1167 12.8244C10.5019 16.3123 -0.398908 25.5496 -5.96362 41.6903C-13.472 63.4824 -5.85741 82.2156 -3.88133 86.718" fill="white"/>
<path d="M15.1167 12.8244C10.5019 16.3123 -0.398908 25.5496 -5.96362 41.6903C-13.472 63.4824 -5.85741 82.2156 -3.88133 86.718" stroke="#7DDB9D" stroke-width="2" stroke-linecap="round" stroke-linejoin="round"/>
</g>
<defs>
<clipPath id="clip0_4201_24961">
<rect width="251" height="261" fill="white"/>
</clipPath>
</defs>
</svg>
