<svg width="251" height="261" viewBox="0 0 251 261" fill="none" xmlns="http://www.w3.org/2000/svg">
<g clip-path="url(#clip0_4201_25178)">
<path d="M0 0H251V261H0V0Z" fill="#7DDB9D"/>
<line x1="98.1484" y1="22.7715" x2="98.1484" y2="136.381" stroke="#181818" stroke-width="1.5" stroke-linecap="round"/>
<path d="M115.364 42.0137H79.4297C78.4632 42.0137 77.6797 42.7972 77.6797 43.7637V180.693C77.6797 181.66 78.4632 182.443 79.4297 182.443H115.364C116.331 182.443 117.114 181.66 117.114 180.693V43.7637C117.114 42.7972 116.331 42.0137 115.364 42.0137Z" fill="#FEE066" stroke="#181818" stroke-width="1.5"/>
<path d="M78.4297 43.7646C78.4297 43.2124 78.8774 42.7646 79.4297 42.7646H87.5437C88.096 42.7646 88.5437 43.2124 88.5437 43.7646V180.694C88.5437 181.246 88.096 181.694 87.5437 181.694H79.4297C78.8774 181.694 78.4297 181.246 78.4297 180.694V43.7646Z" fill="#FFD529"/>
<path d="M236.301 135.377C233.352 138.787 193.453 175.974 121.299 173.046C52.2744 170.246 17.1026 140.06 13.7261 135.771C29.6866 95.6778 72.3464 68.9351 123.476 69.792C175.505 70.6681 221.793 93.7911 236.301 135.377Z" fill="#181818"/>
<path d="M228.613 138.712C222.966 146.015 186.716 190.157 125.392 190.157C118.448 190.157 60.8823 189.12 22.1713 138.714C27.8192 131.413 64.0691 87.2715 125.392 87.2715C132.337 87.2715 189.902 88.3079 228.613 138.712Z" fill="white" stroke="#181818" stroke-width="1.5"/>
<path d="M125.793 191.078C154.397 191.078 177.585 167.824 177.585 139.138C177.585 110.453 154.397 87.1982 125.793 87.1982C97.1883 87.1982 74 110.453 74 139.138C74 167.824 97.1883 191.078 125.793 191.078Z" fill="#2769FF"/>
<path d="M125.098 182.964C149.949 182.964 170.094 162.762 170.094 137.84C170.094 112.919 149.949 92.7158 125.098 92.7158C100.247 92.7158 80.1016 112.919 80.1016 137.84C80.1016 162.762 100.247 182.964 125.098 182.964Z" fill="#465BF9"/>
<path d="M125.442 157.885C135.837 157.885 144.263 149.435 144.263 139.01C144.263 128.586 135.837 120.136 125.442 120.136C115.048 120.136 106.621 128.586 106.621 139.01C106.621 149.435 115.048 157.885 125.442 157.885Z" fill="#FFD529"/>
<path d="M125.157 152.673C133.586 152.673 140.419 145.412 140.419 136.456C140.419 127.5 133.586 120.24 125.157 120.24C116.728 120.24 109.895 127.5 109.895 136.456C109.895 145.412 116.728 152.673 125.157 152.673Z" fill="#FEE066"/>
<path fill-rule="evenodd" clip-rule="evenodd" d="M125.157 128.889C125.211 128.889 125.262 128.91 125.301 128.948C125.339 128.987 125.36 129.039 125.36 129.093V149.238C125.36 149.292 125.339 149.344 125.301 149.382C125.262 149.42 125.211 149.442 125.157 149.442C125.103 149.442 125.051 149.42 125.013 149.382C124.975 149.344 124.953 149.292 124.953 149.238V129.093C124.953 129.039 124.975 128.987 125.013 128.948C125.051 128.91 125.103 128.889 125.157 128.889Z" fill="#181818"/>
<path fill-rule="evenodd" clip-rule="evenodd" d="M125.154 128.834C125.188 128.834 125.222 128.841 125.253 128.854C125.284 128.867 125.312 128.886 125.336 128.91C125.36 128.934 125.379 128.963 125.392 128.994C125.405 129.026 125.411 129.059 125.411 129.093V149.238C125.414 149.274 125.41 149.31 125.398 149.344C125.387 149.378 125.368 149.409 125.344 149.436C125.32 149.463 125.29 149.484 125.257 149.498C125.224 149.513 125.189 149.52 125.153 149.52C125.117 149.52 125.082 149.513 125.049 149.498C125.016 149.484 124.987 149.463 124.962 149.436C124.938 149.409 124.92 149.378 124.908 149.344C124.897 149.31 124.892 149.274 124.896 149.238V129.093C124.896 129.025 124.923 128.959 124.971 128.91C125.02 128.861 125.086 128.834 125.154 128.834V128.834ZM125.358 129.093C125.358 129.039 125.336 128.987 125.298 128.949C125.26 128.911 125.208 128.889 125.154 128.889C125.1 128.889 125.048 128.911 125.01 128.949C124.972 128.987 124.951 129.039 124.951 129.093V149.238C124.951 149.292 124.972 149.344 125.01 149.382C125.048 149.421 125.1 149.442 125.154 149.442C125.208 149.442 125.26 149.421 125.298 149.382C125.336 149.344 125.358 149.292 125.358 149.238V129.093Z" fill="#181818"/>
<path fill-rule="evenodd" clip-rule="evenodd" d="M123.075 128.889C123.129 128.889 123.18 128.91 123.219 128.948C123.257 128.987 123.278 129.039 123.278 129.093V149.238C123.278 149.292 123.257 149.344 123.219 149.382C123.18 149.42 123.129 149.442 123.075 149.442C123.021 149.442 122.969 149.42 122.931 149.382C122.893 149.344 122.871 149.292 122.871 149.238V129.093C122.871 129.039 122.893 128.987 122.931 128.948C122.969 128.91 123.021 128.889 123.075 128.889Z" fill="#181818"/>
<path fill-rule="evenodd" clip-rule="evenodd" d="M123.08 128.834C123.148 128.835 123.213 128.862 123.261 128.911C123.309 128.959 123.336 129.025 123.336 129.093V149.238C123.34 149.274 123.335 149.31 123.324 149.344C123.312 149.378 123.294 149.409 123.27 149.436C123.245 149.463 123.216 149.484 123.183 149.498C123.15 149.513 123.115 149.52 123.079 149.52C123.043 149.52 123.007 149.513 122.975 149.498C122.942 149.484 122.912 149.463 122.888 149.436C122.864 149.409 122.845 149.378 122.834 149.344C122.822 149.31 122.818 149.274 122.821 149.238V129.093C122.821 129.025 122.849 128.959 122.897 128.91C122.946 128.861 123.011 128.834 123.08 128.834ZM123.284 129.093C123.284 129.039 123.262 128.987 123.224 128.949C123.186 128.911 123.134 128.889 123.08 128.889C123.026 128.889 122.974 128.911 122.936 128.949C122.898 128.987 122.876 129.039 122.876 129.093V149.238C122.876 149.292 122.898 149.344 122.936 149.382C122.974 149.421 123.026 149.442 123.08 149.442C123.134 149.442 123.186 149.421 123.224 149.382C123.262 149.344 123.284 149.292 123.284 149.238V129.093Z" fill="#181818"/>
<path fill-rule="evenodd" clip-rule="evenodd" d="M119.062 132.823C119.062 132.769 119.084 132.717 119.122 132.679C119.16 132.641 119.212 132.619 119.266 132.619H127.964C128.871 132.619 129.74 132.98 130.381 133.623C131.022 134.266 131.383 135.138 131.383 136.047C131.383 136.957 131.022 137.829 130.381 138.472C129.74 139.114 128.871 139.476 127.964 139.476H123.078C123.024 139.476 122.972 139.454 122.934 139.416C122.895 139.377 122.874 139.326 122.874 139.271C122.874 139.217 122.895 139.165 122.934 139.127C122.972 139.089 123.024 139.067 123.078 139.067H127.964C128.763 139.067 129.529 138.749 130.093 138.183C130.658 137.616 130.975 136.848 130.975 136.047C130.975 135.246 130.658 134.478 130.093 133.912C129.529 133.346 128.763 133.028 127.964 133.028H119.266C119.212 133.028 119.16 133.006 119.122 132.968C119.084 132.929 119.062 132.877 119.062 132.823Z" fill="#181818"/>
<path fill-rule="evenodd" clip-rule="evenodd" d="M119.012 132.824C119.011 132.79 119.018 132.756 119.031 132.725C119.044 132.693 119.062 132.665 119.086 132.641C119.11 132.617 119.138 132.598 119.17 132.585C119.201 132.573 119.234 132.566 119.268 132.566H127.966C128.873 132.588 129.734 132.965 130.368 133.616C131.001 134.266 131.356 135.139 131.356 136.049C131.356 136.958 131.001 137.831 130.368 138.482C129.734 139.132 128.873 139.509 127.966 139.531H123.08C123.011 139.531 122.945 139.504 122.897 139.455C122.848 139.406 122.821 139.341 122.821 139.272C122.821 139.203 122.848 139.137 122.897 139.088C122.945 139.04 123.011 139.012 123.08 139.012H127.966C128.737 138.992 129.47 138.671 130.008 138.117C130.546 137.563 130.847 136.82 130.847 136.047C130.847 135.273 130.546 134.531 130.008 133.977C129.47 133.423 128.737 133.101 127.966 133.081H119.268C119.2 133.081 119.135 133.054 119.087 133.006C119.039 132.957 119.012 132.892 119.012 132.824V132.824ZM119.268 132.619C119.214 132.619 119.162 132.641 119.124 132.679C119.086 132.718 119.065 132.769 119.065 132.824C119.065 132.878 119.086 132.93 119.124 132.968C119.162 133.006 119.214 133.028 119.268 133.028H127.966C128.765 133.028 129.531 133.346 130.095 133.912C130.66 134.479 130.977 135.247 130.977 136.048C130.977 136.849 130.66 137.617 130.095 138.183C129.531 138.749 128.765 139.068 127.966 139.068H123.08C123.026 139.068 122.974 139.089 122.936 139.127C122.898 139.166 122.876 139.218 122.876 139.272C122.876 139.326 122.898 139.378 122.936 139.416C122.974 139.454 123.026 139.476 123.08 139.476H127.966C128.873 139.476 129.742 139.115 130.383 138.472C131.024 137.829 131.385 136.957 131.385 136.048C131.385 135.138 131.024 134.267 130.383 133.624C129.742 132.981 128.873 132.619 127.966 132.619H119.268Z" fill="#181818"/>
<path fill-rule="evenodd" clip-rule="evenodd" d="M122.884 139.27C122.884 139.215 122.906 139.164 122.944 139.125C122.982 139.087 123.034 139.065 123.088 139.065H128.402C129.308 139.065 130.178 139.427 130.819 140.07C131.46 140.713 131.82 141.584 131.82 142.494C131.82 143.403 131.46 144.275 130.819 144.918C130.178 145.561 129.308 145.922 128.402 145.922H119.266C119.212 145.922 119.16 145.9 119.122 145.862C119.084 145.824 119.062 145.772 119.062 145.718C119.062 145.664 119.084 145.612 119.122 145.573C119.16 145.535 119.212 145.514 119.266 145.514H128.402C129.2 145.514 129.965 145.196 130.53 144.63C131.094 144.064 131.411 143.296 131.411 142.496C131.411 141.695 131.094 140.928 130.53 140.362C129.965 139.796 129.2 139.478 128.402 139.478H123.088C123.061 139.478 123.034 139.473 123.009 139.462C122.984 139.452 122.961 139.436 122.942 139.417C122.923 139.397 122.908 139.374 122.898 139.349C122.888 139.324 122.884 139.297 122.884 139.27Z" fill="#181818"/>
<path fill-rule="evenodd" clip-rule="evenodd" d="M122.83 139.27C122.83 139.236 122.837 139.202 122.85 139.171C122.863 139.14 122.882 139.111 122.906 139.087C122.93 139.063 122.959 139.045 122.99 139.032C123.021 139.019 123.055 139.012 123.089 139.013H128.403C129.323 139.013 130.206 139.379 130.857 140.032C131.508 140.685 131.874 141.571 131.874 142.494C131.874 143.417 131.508 144.303 130.857 144.956C130.206 145.609 129.323 145.975 128.403 145.975H119.267C119.203 145.97 119.143 145.94 119.099 145.892C119.056 145.844 119.031 145.782 119.031 145.717C119.031 145.652 119.056 145.59 119.099 145.542C119.143 145.494 119.203 145.464 119.267 145.459H128.403C128.804 145.48 129.204 145.419 129.581 145.28C129.957 145.14 130.302 144.926 130.593 144.649C130.884 144.372 131.116 144.038 131.274 143.669C131.433 143.299 131.514 142.9 131.514 142.498C131.514 142.096 131.433 141.697 131.274 141.328C131.116 140.958 130.884 140.624 130.593 140.347C130.302 140.07 129.957 139.856 129.581 139.716C129.204 139.577 128.804 139.516 128.403 139.537H123.089C123.054 139.537 123.02 139.531 122.988 139.517C122.956 139.503 122.927 139.484 122.903 139.459C122.879 139.434 122.86 139.404 122.847 139.372C122.835 139.339 122.829 139.305 122.83 139.27ZM123.089 139.066C123.035 139.066 122.983 139.087 122.945 139.126C122.907 139.164 122.885 139.216 122.885 139.27C122.885 139.324 122.907 139.376 122.945 139.414C122.983 139.453 123.035 139.474 123.089 139.474H128.403C128.805 139.464 129.205 139.534 129.579 139.681C129.953 139.828 130.295 140.049 130.582 140.33C130.87 140.611 131.099 140.948 131.256 141.319C131.412 141.691 131.492 142.09 131.492 142.493C131.492 142.896 131.412 143.295 131.256 143.667C131.099 144.038 130.87 144.375 130.582 144.656C130.295 144.937 129.953 145.158 129.579 145.305C129.205 145.452 128.805 145.522 128.403 145.512H119.267C119.213 145.512 119.161 145.533 119.123 145.572C119.085 145.61 119.064 145.662 119.064 145.716C119.064 145.77 119.085 145.822 119.123 145.86C119.161 145.899 119.213 145.92 119.267 145.92H128.403C129.309 145.92 130.179 145.559 130.82 144.916C131.461 144.273 131.821 143.401 131.821 142.492C131.821 141.583 131.461 140.711 130.82 140.068C130.179 139.425 129.309 139.064 128.403 139.064L123.089 139.066Z" fill="#181818"/>
<path d="M111.787 132.564C114.696 132.564 117.054 130.199 117.054 127.282C117.054 124.365 114.696 122 111.787 122C108.878 122 106.52 124.365 106.52 127.282C106.52 130.199 108.878 132.564 111.787 132.564Z" fill="white"/>
<path d="M139.84 116.544L145.689 108.822" stroke="white" stroke-width="1.5" stroke-miterlimit="10" stroke-linecap="round"/>
<path d="M103.012 152.673L92.3008 159.554" stroke="white" stroke-width="1.5" stroke-miterlimit="10" stroke-linecap="round"/>
<path d="M106.048 157.759L99.2578 164.662" stroke="white" stroke-width="1.5" stroke-miterlimit="10" stroke-linecap="round"/>
<path d="M144.473 154.894L158.479 164.07" stroke="white" stroke-width="1.5" stroke-miterlimit="10" stroke-linecap="round"/>
<path d="M136.461 159.482L144.825 174.012" stroke="white" stroke-width="1.5" stroke-miterlimit="10" stroke-linecap="round"/>
<path d="M131.887 161.585L134.242 170.99" stroke="white" stroke-width="1.5" stroke-miterlimit="10" stroke-linecap="round"/>
<path d="M144.52 161.619L141.012 157.344" stroke="white" stroke-width="1.5" stroke-miterlimit="10" stroke-linecap="round"/>
</g>
<defs>
<clipPath id="clip0_4201_25178">
<rect width="251" height="261" fill="white"/>
</clipPath>
</defs>
</svg>
